<svg width="281" height="185" viewBox="0 0 281 185" fill="none" xmlns="http://www.w3.org/2000/svg">
<path d="M174.723 176.502C174.723 176.502 184.817 161.697 189.96 169.195C194.767 176.261 176.886 179.962 176.886 179.962" fill="url(#paint0_linear_32_645)"/>
<path d="M111.467 166.696C111.467 166.696 98.3449 154.439 106.564 150.545C114.303 146.892 115.216 165.062 115.216 165.062" fill="url(#paint1_linear_32_645)"/>
<path d="M202.362 183.76H67.9185C68.0147 183.471 68.4953 182.943 69.8412 182.077C72.7252 180.251 81.7137 181.885 81.7137 181.885C81.7137 181.885 79.5988 181.068 79.5988 179.962C79.5988 178.857 80.4159 177.896 81.4253 177.463C82.4347 177.03 83.5403 176.982 84.6458 177.03C86.8569 177.175 89.0679 177.655 91.0868 178.472C90.2215 177.944 89.9331 176.598 90.558 175.781C91.1348 174.963 92.4807 174.771 93.2978 175.444C91.9039 173.569 88.6353 164.1 95.2686 160.447C103.536 155.833 110.938 160.784 112.284 163.524C112.957 160.784 116.082 158.717 118.148 158.236C127.954 155.881 135.116 164.293 135.212 164.437C135.308 164.293 135.404 164.148 135.501 164.004C136.51 162.658 138.577 160.159 140.163 159.438C144.537 157.371 147.565 157.034 152.276 158.188C154.343 158.717 157.467 160.736 158.14 163.475C159.486 160.688 166.984 154.487 175.012 159.486C182.318 164.004 178.472 173.521 177.078 175.396C177.847 174.723 179.193 174.915 179.818 175.733C180.395 176.55 180.155 177.896 179.289 178.424C181.356 177.607 183.519 177.126 185.73 176.982C186.836 176.934 187.942 176.934 188.951 177.415C189.96 177.847 190.777 178.809 190.777 179.914C190.777 181.02 188.663 181.837 188.663 181.837C188.663 181.837 197.699 180.203 200.535 182.029C201.785 182.943 202.265 183.471 202.362 183.76Z" fill="url(#paint2_linear_32_645)"/>
<path d="M224.52 54.9885H199.574C198.42 54.9885 197.507 54.0752 197.507 52.9216V34.4639C197.507 33.3103 198.42 32.3971 199.574 32.3971H224.52C225.674 32.3971 226.587 33.3103 226.587 34.4639V52.8736C226.587 54.0752 225.674 54.9885 224.52 54.9885Z" fill="url(#paint3_linear_32_645)"/>
<path d="M208.466 39.0303L215.772 43.2602C216.109 43.4524 216.109 43.9812 215.772 44.1734L208.466 48.4033C208.13 48.5956 207.697 48.3553 207.697 47.9707V39.4629C207.649 39.0784 208.082 38.838 208.466 39.0303Z" fill="url(#paint4_linear_32_645)"/>
<path d="M225.962 58.257H198.132C197.795 58.257 197.507 57.9686 197.507 57.6322C197.507 57.2957 197.795 57.0073 198.132 57.0073H225.962C226.299 57.0073 226.587 57.2957 226.587 57.6322C226.587 57.9686 226.299 58.257 225.962 58.257Z" fill="url(#paint5_linear_32_645)"/>
<path d="M226.587 57.5841C226.587 57.9206 226.299 58.209 225.962 58.209H207.264V56.9112H225.962C226.299 56.9592 226.587 57.2476 226.587 57.5841Z" fill="url(#paint6_linear_32_645)"/>
<path d="M208.947 57.5841C208.947 58.5454 208.178 59.3145 207.216 59.3145C206.255 59.3145 205.486 58.5454 205.486 57.5841C205.486 56.6228 206.255 55.8537 207.216 55.8537C208.178 55.9018 208.947 56.6708 208.947 57.5841Z" fill="url(#paint7_linear_32_645)"/>
<path d="M208.226 57.5841C208.226 58.1128 207.793 58.5454 207.264 58.5454C206.736 58.5454 206.303 58.1128 206.303 57.5841C206.303 57.0554 206.736 56.6228 207.264 56.6228C207.793 56.6228 208.226 57.0554 208.226 57.5841Z" fill="url(#paint8_linear_32_645)"/>
<path d="M73.1097 78.0606C67.8705 78.0606 63.6406 73.8307 63.6406 68.5914C63.6406 63.3521 67.8705 59.1223 73.1097 59.1223C78.349 59.1223 82.5789 63.3521 82.5789 68.5914C82.5789 73.8307 78.301 78.0606 73.1097 78.0606ZM73.1097 60.372C68.5915 60.372 64.8903 64.0731 64.8903 68.5914C64.8903 73.1097 68.5915 76.8109 73.1097 76.8109C77.628 76.8109 81.3292 73.1097 81.3292 68.5914C81.3292 64.0731 77.628 60.372 73.1097 60.372Z" fill="url(#paint9_linear_32_645)"/>
<path d="M77.2435 70.8506C77.2435 70.2257 77.0993 69.697 76.7628 69.3605C76.4263 68.976 76.0418 68.6876 75.6092 68.4953C75.1766 68.303 74.5998 68.1588 73.9749 67.9666V64.8903C74.4556 64.9384 74.9362 65.0826 75.3689 65.2268C75.8015 65.371 76.2821 65.1787 76.4263 64.7942C76.5225 64.6019 76.5225 64.3616 76.4263 64.1212C76.3302 63.929 76.186 63.7848 75.9937 63.6886C75.4169 63.4483 74.6959 63.3041 73.9268 63.208V62.2947C73.9268 61.814 73.5423 61.3814 73.0616 61.3814C72.581 61.3814 72.1484 61.7659 72.1484 62.2947V63.256C71.0909 63.4002 70.2738 63.7367 69.745 64.3135C69.1682 64.8903 68.8798 65.5632 68.8798 66.3804C68.8798 67.0052 69.024 67.534 69.3605 67.9185C69.697 68.303 70.0815 68.5914 70.5622 68.7837C70.9948 68.976 71.5716 69.1682 72.1964 69.3124V72.3407C71.6677 72.2926 71.139 72.1484 70.6583 71.9561C70.466 71.9081 70.3218 71.8119 70.1296 71.7158C70.0334 71.6677 69.9373 71.6677 69.7931 71.6677C69.697 71.6677 69.6008 71.6677 69.5047 71.7158C69.3124 71.8119 69.1202 71.9561 69.024 72.1484C68.8318 72.581 69.024 73.0617 69.4566 73.2539C69.697 73.3501 69.9373 73.4462 70.2257 73.5423C70.8506 73.7346 71.5235 73.8788 72.1964 73.9269V74.8401C72.1964 75.3208 72.581 75.7053 73.1097 75.7053C73.5904 75.7053 73.9749 75.3208 73.9749 74.8401V73.8788C75.0324 73.7346 75.8495 73.3981 76.3783 72.8213C77.0031 72.2926 77.2435 71.6197 77.2435 70.8506ZM71.3312 67.0533C71.0909 66.861 70.9467 66.5726 70.9467 66.2842C70.9467 65.9478 71.0428 65.6594 71.2832 65.419C71.4754 65.1787 71.7638 65.0345 72.1484 64.9384V67.4859C71.86 67.3417 71.5716 67.1975 71.3312 67.0533ZM74.8401 71.8119C74.6478 72.0042 74.3594 72.1484 73.9749 72.2445V69.745C74.3594 69.8892 74.6478 70.0335 74.8401 70.2257C75.0804 70.418 75.1766 70.7064 75.1766 70.9948C75.1766 71.3313 75.0804 71.6197 74.8401 71.8119Z" fill="url(#paint10_linear_32_645)"/>
<path d="M222.694 183.952H239.421V116.995H222.694V183.952Z" fill="url(#paint11_linear_32_645)"/>
<path d="M221.732 183.952H237.21V116.995H221.732V183.952Z" fill="url(#paint12_linear_32_645)"/>
<path d="M205.294 133.482L207.649 133.193L213.994 93.2017C214.042 92.8171 214.378 92.5287 214.763 92.5287H258.6L259.032 91.1348L260.763 92.2403C260.763 92.2403 260.811 92.2403 260.811 92.2884C261.003 92.4807 261.147 92.721 261.099 93.0094L254.562 134.155C254.514 134.539 254.178 134.828 253.793 134.828H207.601C207.409 134.828 207.216 134.731 207.072 134.635L205.294 133.482Z" fill="url(#paint13_linear_32_645)"/>
<path d="M205.822 133.674H252.015C252.399 133.674 252.736 133.386 252.784 133.001L259.321 91.8558C259.417 91.3751 259.032 90.9425 258.552 90.9425H212.359C211.975 90.9425 211.638 91.2309 211.59 91.6155L205.053 132.761C204.957 133.241 205.342 133.674 205.822 133.674Z" fill="url(#paint14_linear_32_645)"/>
<path d="M207.985 131.751H250.38C250.621 131.751 250.813 131.559 250.861 131.319L256.869 93.5382C256.917 93.2498 256.677 92.9613 256.389 92.9613H213.994C213.753 92.9613 213.561 93.1536 213.513 93.394L207.505 131.175C207.457 131.463 207.697 131.751 207.985 131.751Z" fill="url(#paint15_linear_32_645)"/>
<path d="M222.646 113.919H236.729C237.018 113.919 237.306 113.678 237.354 113.39L239.325 100.892C239.373 100.508 239.085 100.171 238.7 100.171H224.616C224.328 100.171 224.04 100.412 223.992 100.7L222.021 113.197C221.973 113.582 222.261 113.919 222.646 113.919Z" fill="url(#paint16_linear_32_645)"/>
<path d="M225.338 112.236H224.376C224.232 112.236 224.136 112.14 224.136 111.996L225.289 104.69C225.289 104.545 225.434 104.449 225.578 104.449H226.539C226.683 104.449 226.78 104.545 226.78 104.69L225.626 111.996C225.626 112.092 225.482 112.236 225.338 112.236Z" fill="#EDF7FF"/>
<path d="M227.837 112.236H226.876C226.732 112.236 226.635 112.14 226.635 111.996L227.549 106.18C227.549 106.036 227.693 105.939 227.837 105.939H228.798C228.943 105.939 229.039 106.036 229.039 106.18L228.125 111.996C228.125 112.092 227.981 112.236 227.837 112.236Z" fill="#EDF7FF"/>
<path d="M230.385 112.236H229.423C229.279 112.236 229.183 112.14 229.183 111.996L230.288 105.122C230.288 104.978 230.433 104.882 230.577 104.882H231.538C231.682 104.882 231.778 104.978 231.778 105.122L230.673 111.996C230.625 112.092 230.529 112.236 230.385 112.236Z" fill="#EDF7FF"/>
<path d="M232.884 112.236H231.923C231.779 112.236 231.682 112.14 231.682 111.996L233.317 101.71C233.317 101.565 233.461 101.469 233.605 101.469H234.566C234.711 101.469 234.807 101.565 234.807 101.71L233.172 111.996C233.172 112.092 233.028 112.236 232.884 112.236Z" fill="#EDF7FF"/>
<path d="M235.383 112.236H234.422C234.278 112.236 234.182 112.14 234.182 111.996L235.48 103.824C235.48 103.68 235.624 103.584 235.768 103.584H236.729C236.874 103.584 236.97 103.68 236.97 103.824L235.672 111.996C235.672 112.092 235.528 112.236 235.383 112.236Z" fill="#EDF7FF"/>
<path opacity="0.5" d="M240.527 122.715H248.265C248.458 122.715 248.602 122.571 248.602 122.426L249.707 115.553C249.756 115.361 249.563 115.168 249.371 115.168H241.632C241.44 115.168 241.296 115.312 241.296 115.457L240.19 122.33C240.142 122.522 240.334 122.715 240.527 122.715Z" fill="url(#paint17_linear_32_645)"/>
<path opacity="0.3" d="M224.761 127.954H241.921C242.161 127.954 242.353 127.762 242.401 127.57L243.891 118.245C243.939 117.956 243.699 117.716 243.411 117.716H226.251C226.01 117.716 225.818 117.908 225.77 118.1L224.28 127.425C224.232 127.666 224.424 127.954 224.761 127.954Z" fill="url(#paint18_linear_32_645)"/>
<path d="M226.78 121.657L226.155 125.599H241.248L242.017 120.744C242.017 120.744 241.055 120.263 239.806 120.936C238.796 121.465 237.354 123.051 236.393 122.955C235.383 122.859 234.759 120.311 233.413 120.311C232.067 120.311 230.961 123.099 229.856 123.147C228.75 123.195 227.452 121.657 226.78 121.657Z" fill="url(#paint19_linear_32_645)"/>
<path opacity="0.5" d="M242.738 103.584H251.101C251.198 103.584 251.294 103.488 251.342 103.392L252.063 98.8736C252.063 98.7294 251.967 98.5852 251.822 98.5852H243.459C243.363 98.5852 243.266 98.6813 243.218 98.7774L242.497 103.296C242.449 103.44 242.594 103.584 242.738 103.584Z" fill="url(#paint20_linear_32_645)"/>
<path d="M244.18 105.507H248.602C248.746 105.507 248.842 105.411 248.89 105.266C248.89 105.122 248.842 105.026 248.698 105.026H244.276C244.132 105.026 244.035 105.122 243.987 105.266C243.987 105.411 244.084 105.507 244.18 105.507Z" fill="url(#paint21_linear_32_645)"/>
<path d="M244.036 106.42H248.458C248.602 106.42 248.698 106.324 248.746 106.18C248.746 106.036 248.698 105.939 248.554 105.939H244.132C243.987 105.939 243.891 106.036 243.843 106.18C243.843 106.276 243.939 106.42 244.036 106.42Z" fill="url(#paint22_linear_32_645)"/>
<path d="M243.891 107.285H248.314C248.458 107.285 248.554 107.189 248.602 107.045C248.602 106.901 248.554 106.805 248.41 106.805H243.988C243.843 106.805 243.747 106.901 243.699 107.045C243.699 107.189 243.795 107.285 243.891 107.285Z" fill="url(#paint23_linear_32_645)"/>
<path d="M246.199 108.15H248.169C248.314 108.15 248.41 108.054 248.458 107.91C248.458 107.766 248.41 107.67 248.265 107.67H246.295C246.151 107.67 246.054 107.766 246.006 107.91C246.006 108.054 246.102 108.15 246.199 108.15Z" fill="url(#paint24_linear_32_645)"/>
<path d="M214.474 120.696H218.897C219.041 120.696 219.137 120.6 219.185 120.456C219.185 120.311 219.137 120.215 218.993 120.215H214.571C214.426 120.215 214.33 120.311 214.282 120.456C214.234 120.552 214.33 120.696 214.474 120.696Z" fill="url(#paint25_linear_32_645)"/>
<path d="M214.33 121.561H218.752C218.897 121.561 218.993 121.465 219.041 121.321C219.041 121.177 218.993 121.08 218.849 121.08H214.378C214.234 121.08 214.138 121.177 214.09 121.321C214.09 121.465 214.186 121.561 214.33 121.561Z" fill="url(#paint26_linear_32_645)"/>
<path d="M214.186 122.426H218.608C218.752 122.426 218.849 122.33 218.897 122.186C218.897 122.042 218.849 121.946 218.704 121.946H214.282C214.138 121.946 214.042 122.042 213.994 122.186C213.946 122.33 214.042 122.426 214.186 122.426Z" fill="url(#paint27_linear_32_645)"/>
<path d="M216.493 123.34H218.464C218.608 123.34 218.704 123.243 218.752 123.099C218.752 122.955 218.704 122.859 218.56 122.859H216.589C216.445 122.859 216.349 122.955 216.301 123.099C216.253 123.243 216.349 123.34 216.493 123.34Z" fill="url(#paint28_linear_32_645)"/>
<path d="M216.493 100.652H220.915C221.06 100.652 221.156 100.556 221.204 100.412C221.204 100.268 221.156 100.171 221.011 100.171H216.589C216.445 100.171 216.349 100.268 216.301 100.412C216.301 100.556 216.349 100.652 216.493 100.652Z" fill="url(#paint29_linear_32_645)"/>
<path d="M216.349 101.565H220.771C220.915 101.565 221.011 101.469 221.06 101.325C221.06 101.181 221.011 101.085 220.867 101.085H216.445C216.301 101.085 216.205 101.181 216.157 101.325C216.157 101.421 216.253 101.565 216.349 101.565Z" fill="url(#paint30_linear_32_645)"/>
<path d="M218.656 102.431H220.627C220.771 102.431 220.867 102.334 220.915 102.19C220.915 102.046 220.867 101.95 220.723 101.95H218.752C218.608 101.95 218.512 102.046 218.464 102.19C218.464 102.334 218.56 102.431 218.656 102.431Z" fill="url(#paint31_linear_32_645)"/>
<path opacity="0.3" d="M153.478 128.531H118.917L92.9133 49.2205H179.434L153.478 128.531Z" fill="url(#paint32_linear_32_645)"/>
<path opacity="0.15" d="M158.477 128.531H113.919L76.8589 49.2205H195.488L158.477 128.531Z" fill="url(#paint33_linear_32_645)"/>
<path d="M160.015 128.531H112.332V183.952H160.015V128.531Z" fill="url(#paint34_linear_32_645)"/>
<path d="M150.401 128.531H121.946V183.952H150.401V128.531Z" fill="url(#paint35_linear_32_645)"/>
<path d="M161.937 135.452H110.458C110.265 135.452 110.121 135.308 110.121 135.116V128.867C110.121 128.675 110.265 128.531 110.458 128.531H161.937C162.13 128.531 162.274 128.675 162.274 128.867V135.116C162.274 135.308 162.13 135.452 161.937 135.452Z" fill="url(#paint36_linear_32_645)"/>
<path d="M160.015 135.452H112.332V138H160.015V135.452Z" fill="url(#paint37_linear_32_645)"/>
<path d="M130.165 135.452V184" stroke="url(#paint38_linear_32_645)" stroke-width="1.0668" stroke-miterlimit="10"/>
<path d="M136.173 135.452V184" stroke="url(#paint39_linear_32_645)" stroke-width="1.0668" stroke-miterlimit="10"/>
<path d="M142.23 135.452V184" stroke="url(#paint40_linear_32_645)" stroke-width="1.0668" stroke-miterlimit="10"/>
<path d="M158.236 84.7419C157.996 83.8767 157.707 83.0115 157.371 82.1944C157.083 81.5695 156.794 80.8966 156.458 80.3197C156.169 79.791 155.833 79.2623 155.448 78.7816C155.112 78.3009 154.727 77.8683 154.343 77.4357C154.199 77.2915 154.054 77.0993 153.91 76.9551L151.026 73.9749C151.17 74.1191 151.315 74.3114 151.459 74.4556C151.843 74.8882 152.228 75.3208 152.564 75.8015C152.949 76.2821 153.285 76.8109 153.574 77.3396C153.91 77.9645 154.247 78.5893 154.487 79.2142C154.823 80.0313 155.112 80.8966 155.352 81.7618C156.073 84.5496 156.169 87.5778 155.544 90.7983C155.4 91.6155 155.208 92.3845 154.968 93.1536C154.679 94.1149 154.343 95.0282 153.91 95.9415C153.574 96.6625 153.237 97.3354 152.853 98.0084C152.516 98.6332 152.132 99.21 151.747 99.7868C151.363 100.316 150.978 100.844 150.594 101.373C150.209 101.854 149.776 102.334 149.344 102.815C148.911 103.296 148.431 103.728 147.998 104.161C147.517 104.594 147.037 105.026 146.508 105.459C145.979 105.891 145.402 106.324 144.826 106.708C144.153 107.141 143.528 107.574 142.807 107.91C141.942 108.391 141.076 108.775 140.211 109.16C137.183 110.362 133.914 110.986 130.646 110.842C125.695 110.602 121.513 108.583 118.485 105.507L121.369 108.487C124.349 111.611 128.579 113.582 133.53 113.822C136.798 114.015 140.067 113.39 143.095 112.14C143.96 111.804 144.826 111.371 145.691 110.89C146.364 110.506 147.037 110.121 147.71 109.689C148.286 109.304 148.863 108.871 149.392 108.439C149.921 108.006 150.401 107.622 150.882 107.141C151.363 106.708 151.795 106.276 152.228 105.795C152.66 105.315 153.093 104.834 153.478 104.353C153.91 103.824 154.295 103.296 154.631 102.767C155.016 102.19 155.4 101.613 155.737 100.989C156.121 100.316 156.458 99.6426 156.794 98.9216C157.179 98.0084 157.563 97.0951 157.852 96.1337C158.092 95.3647 158.284 94.5956 158.428 93.7785C159.053 90.6061 158.957 87.5298 158.236 84.7419Z" fill="url(#paint41_linear_32_645)"/>
<path d="M138.913 68.6395C150.401 69.2644 157.9 79.1661 155.592 90.8464C153.285 102.479 142.134 111.467 130.646 110.842C119.158 110.217 111.659 100.316 113.967 88.6353C116.226 77.0031 127.377 68.0146 138.913 68.6395Z" fill="url(#paint42_linear_32_645)"/>
<path d="M138.433 71.0428C148.623 71.5716 155.208 80.3678 153.189 90.6541C151.17 100.94 141.269 108.871 131.126 108.343C120.936 107.814 114.351 99.0178 116.37 88.7315C118.341 78.4451 128.242 70.5141 138.433 71.0428Z" fill="url(#paint43_linear_32_645)"/>
<path d="M123.051 93.3459L123.916 94.2591L121.369 94.163L120.456 93.2017L123.051 93.3459Z" fill="white"/>
<path d="M124.013 88.3469L124.878 89.3083L123.917 94.2592L123.051 93.3459L124.013 88.3469Z" fill="white"/>
<path d="M124.445 83.9728L125.358 84.8861L128.435 90.1254L127.57 89.164L124.445 83.9728Z" fill="white"/>
<path d="M129.252 93.6823L130.165 94.5956L128.002 94.4995L127.089 93.5862L129.252 93.6823Z" fill="white"/>
<path d="M131.079 84.3093L131.992 85.2706L130.165 94.5956L129.252 93.6823L131.079 84.3093Z" fill="white"/>
<path d="M131.078 84.3093L129.252 93.6823L127.089 93.5862L124.013 88.3469L123.051 93.3459L120.456 93.2017L122.33 83.8767L124.445 83.9728L127.57 89.1641L128.531 84.2132L131.078 84.3093Z" fill="url(#paint44_linear_32_645)"/>
<path d="M140.163 84.79L139.779 86.8568L135.164 86.6165L134.732 88.6834L135.645 89.5967L136.029 87.5298L140.644 87.7701L141.076 85.7513L140.163 84.79Z" fill="white"/>
<path d="M138.433 90.8945L134.347 90.7022L133.722 93.9227L131.079 93.7785L131.992 94.6917L134.587 94.8359L135.212 91.6155L139.298 91.8558L139.683 89.7889L138.817 88.8756L138.433 90.8945Z" fill="white"/>
<path d="M140.163 84.79L139.779 86.8568L135.164 86.6165L134.732 88.6834L138.817 88.8756L138.433 90.8945L134.347 90.7022L133.722 93.9227L131.078 93.7785L132.953 84.4054L140.163 84.79Z" fill="url(#paint45_linear_32_645)"/>
<path d="M142.999 87.0491L140.163 86.9049L141.076 87.8662L143.912 88.0104L142.999 87.0491Z" fill="white"/>
<path d="M148.863 85.2706L148.431 87.3375L145.643 87.1933L144.201 94.4514L141.605 94.3072L142.47 95.2685L145.114 95.3647L146.508 88.1546L149.344 88.2988L149.728 86.1839L148.863 85.2706Z" fill="white"/>
<path d="M148.863 85.2706L148.431 87.3375L145.643 87.1933L144.201 94.4514L141.605 94.3072L142.999 87.0491L140.163 86.9049L140.596 84.838L148.863 85.2706Z" fill="url(#paint46_linear_32_645)"/>
<path d="M119.11 64.9384C120.251 64.9384 121.177 64.013 121.177 62.8715C121.177 61.73 120.251 60.8046 119.11 60.8046C117.968 60.8046 117.043 61.73 117.043 62.8715C117.043 64.013 117.968 64.9384 119.11 64.9384Z" fill="url(#paint47_linear_32_645)"/>
<path opacity="0.5" d="M124.83 117.764C124.83 119.206 123.676 120.408 122.186 120.408C120.696 120.408 119.542 119.254 119.542 117.764C119.542 116.274 120.696 115.12 122.186 115.12C123.676 115.12 124.83 116.322 124.83 117.764Z" fill="url(#paint48_linear_32_645)"/>
<path d="M154.535 111.371C154.535 111.9 154.102 112.332 153.574 112.332C153.045 112.332 152.612 111.9 152.612 111.371C152.612 110.842 153.045 110.41 153.574 110.41C154.102 110.41 154.535 110.842 154.535 111.371Z" fill="url(#paint49_linear_32_645)"/>
<path d="M138.673 124.637C138.673 125.07 138.336 125.455 137.856 125.455C137.423 125.455 137.039 125.118 137.039 124.637C137.039 124.157 137.375 123.82 137.856 123.82C138.336 123.82 138.673 124.205 138.673 124.637Z" fill="url(#paint50_linear_32_645)"/>
<path d="M110.121 83.5402C110.121 83.9728 109.785 84.3574 109.304 84.3574C108.871 84.3574 108.487 84.0209 108.487 83.5402C108.487 83.0596 108.823 82.7231 109.304 82.7231C109.737 82.7231 110.121 83.1076 110.121 83.5402Z" fill="url(#paint51_linear_32_645)"/>
<path d="M148.431 63.6886C148.431 64.1212 148.094 64.5057 147.613 64.5057C147.181 64.5057 146.796 64.1693 146.796 63.6886C146.796 63.256 147.133 62.8715 147.613 62.8715C148.094 62.8715 148.431 63.256 148.431 63.6886Z" fill="url(#paint52_linear_32_645)"/>
<path opacity="0.2" d="M148.863 120.408C149.527 120.408 150.065 119.87 150.065 119.206C150.065 118.542 149.527 118.004 148.863 118.004C148.199 118.004 147.661 118.542 147.661 119.206C147.661 119.87 148.199 120.408 148.863 120.408Z" fill="url(#paint53_linear_32_645)"/>
<path opacity="0.3" d="M162.418 79.7429C162.418 80.4159 161.889 80.9446 161.216 80.9446C160.543 80.9446 160.015 80.4159 160.015 79.7429C160.015 79.07 160.543 78.5413 161.216 78.5413C161.889 78.5413 162.418 79.07 162.418 79.7429Z" fill="url(#paint54_linear_32_645)"/>
<path d="M217.599 100.844C217.551 100.796 217.455 100.796 217.407 100.796C217.407 100.748 217.407 100.748 217.358 100.7C217.262 100.604 217.022 100.7 216.734 100.748C216.734 100.7 216.734 100.652 216.734 100.604C216.589 100.508 216.349 100.604 216.349 100.604L214.763 101.277L214.715 101.325C214.667 101.373 214.571 101.421 214.523 101.469C214.33 101.661 214.09 101.902 213.898 102.142C213.465 102.671 212.936 103.055 212.36 103.296L206.015 105.843L211.062 106.18C211.062 106.18 213.177 104.834 213.802 104.69C214.426 104.545 215.244 104.594 215.58 104.257C215.916 103.921 216.782 103.055 216.734 102.719C216.734 102.431 216.493 102.527 216.397 102.527C216.157 102.623 215.676 103.103 215.532 103.2C215.388 103.296 214.907 103.392 214.715 103.152L215.58 102.238C215.58 102.238 216.205 101.71 216.782 101.421C217.503 101.229 217.695 100.94 217.599 100.844Z" fill="#EFCDAF"/>
<path d="M205.294 176.405L205.438 180.059C205.438 180.059 207.505 180.972 209.139 180.059L209.572 175.636" fill="#EFCDAF"/>
<path d="M205.486 180.059C205.486 180.059 204.909 180.635 204.765 181.549C204.621 182.414 204.813 183.567 204.813 183.808C204.813 183.904 207.216 183.856 209.668 183.856C212.215 183.856 214.811 183.952 215.003 183.856C215.388 183.664 209.187 180.059 209.187 180.059C209.187 180.059 207.457 180.491 205.486 180.059Z" fill="url(#paint55_linear_32_645)"/>
<path d="M186.452 174.915L185.394 178.424C185.394 178.424 186.884 179.914 188.711 179.626L190.489 175.348" fill="#EFCDAF"/>
<path d="M184.24 179.578C184.673 178.761 185.394 178.424 185.394 178.424C185.875 178.857 188.807 179.674 188.807 179.674C188.807 179.674 188.807 179.818 189.336 180.347C189.768 180.78 190.249 181.308 190.778 181.741C191.066 181.837 193.998 183.664 193.565 183.856C193.181 184.048 190.537 184 189.624 183.952C189.384 183.952 186.355 182.702 185.346 182.318C184.337 181.933 183.423 181.501 183.471 181.308C183.567 181.116 183.808 180.347 184.24 179.578Z" fill="url(#paint56_linear_32_645)"/>
<path d="M204.477 126.8C204.477 126.8 202.938 140.644 202.121 147.661C201.833 149.969 201.689 151.507 201.641 151.603C201.16 153.429 200.439 155.641 199.622 158.044C196.449 167.032 191.739 177.992 191.739 177.992C191.739 177.992 188.038 177.415 185.923 175.877L191.306 150.93C191.306 150.93 191.018 130.838 190.874 127.521L204.477 126.8Z" fill="url(#paint57_linear_32_645)"/>
<path opacity="0.35" d="M202.121 147.661C201.833 149.969 201.689 151.507 201.641 151.603C201.16 153.429 200.439 155.641 199.622 158.044C199.478 155.496 198.468 138.817 198.468 138.817L202.121 147.661Z" fill="url(#paint58_linear_32_645)"/>
<path d="M212.167 86.953C211.783 89.0679 210.677 93.442 209.524 95.0763C209.379 95.3166 209.091 95.4127 208.803 95.3647C207.553 95.0763 203.419 93.7785 202.698 88.9718C201.833 83.2518 205.967 82.1463 207.937 82.627C209.908 83.0596 212.84 83.4441 212.167 86.953Z" fill="#EFCDAF"/>
<path d="M210.245 125.551L211.062 149.536L209.956 178.665C209.956 178.665 206.255 179.289 203.563 178.857C203.563 178.857 201.112 156.362 200.968 153.141C200.775 149.055 195.921 128.002 196.065 125.31" fill="url(#paint59_linear_32_645)"/>
<path d="M207.937 93.8746C207.937 93.8746 207.409 95.7492 207.12 98.2006C207.12 98.2006 203.563 98.0564 201.544 96.9509C201.544 96.9509 203.083 93.2017 203.323 89.4044" fill="#EFCDAF"/>
<path d="M214.523 84.5016C214.378 84.1651 214.09 83.8286 213.754 83.7325C213.465 83.6364 213.177 83.6364 212.936 83.4922C212.263 83.1557 212.215 82.1944 211.687 81.6656C211.494 81.5214 211.254 81.4253 211.014 81.3292C210.389 81.1369 209.764 81.0888 209.139 81.1369C208.851 81.185 208.562 81.233 208.274 81.185C208.13 81.1369 207.985 81.0888 207.841 81.0408C207.216 80.8004 206.543 80.7524 205.967 80.9446C205.726 81.0408 205.486 81.1369 205.294 81.3292C203.275 82.0502 203.9 83.348 203.9 83.348C202.506 83.6364 201.641 84.4054 201.593 86.953C201.545 89.5005 201.929 92.721 202.266 93.1536C202.602 93.5862 205.486 94.4034 206.88 93.7304C207.313 93.4901 208.706 89.4525 208.851 89.0199C208.899 88.9237 208.899 88.7795 208.995 88.7315C209.139 88.6353 209.331 88.6353 209.476 88.6353C209.908 88.6353 210.293 88.5392 210.629 88.2989C211.062 88.3469 211.542 88.2989 211.975 88.1066C212.263 88.0105 212.6 87.8182 212.792 87.5779C212.888 87.4337 212.984 87.2895 213.081 87.1453C213.802 86.9049 214.426 86.3281 214.619 85.559C214.667 85.2706 214.667 84.8861 214.523 84.5016Z" fill="url(#paint60_linear_32_645)"/>
<path d="M190.537 128.771C191.21 129.156 205.294 129.973 210.437 128.531C210.437 128.531 210.389 125.31 210.437 123.724C210.437 123.051 211.302 106.66 211.062 102.334C211.062 102.334 209.764 98.6813 207.024 97.9122C203.852 96.9989 200.487 96.5663 200.487 96.5663C199.093 96.8067 196.305 99.5946 195.344 102.142C192.412 109.881 190.008 128.483 190.537 128.771Z" fill="url(#paint61_linear_32_645)"/>
<path d="M229.471 104.834C229.423 104.834 229.231 104.882 228.943 104.93C229.087 104.738 229.039 104.545 228.894 104.594C228.702 104.642 227.789 104.93 227.549 105.026C227.308 105.17 226.491 105.651 226.491 105.651C226.395 105.699 226.299 105.747 226.251 105.795C225.818 106.084 225.434 106.997 224.905 107.478C224.376 107.91 223.559 108.343 223.559 108.343L214.763 110.746L212.792 106.66L206.591 108.006C206.591 108.006 210.148 114.64 211.927 115.937C212.552 116.418 222.357 111.227 224.617 109.977C225.001 109.785 226.539 109.448 226.924 108.871C227.356 108.295 227.452 107.91 227.452 107.91L228.173 107.045C228.173 107.045 228.991 106.516 229.039 106.276C229.087 106.084 228.943 106.036 228.943 106.036L229.231 105.843C229.567 105.555 229.327 105.363 229.327 105.363C229.664 105.17 229.76 104.786 229.471 104.834Z" fill="#EFCDAF"/>
<path d="M204.428 102.19C204.284 104.017 206.976 110.554 206.976 110.554C206.976 110.554 210.773 109.833 213.465 107.381C213.465 107.381 211.158 101.421 210.004 100.268C208.61 98.8736 204.669 99.3542 204.428 102.19Z" fill="url(#paint62_linear_32_645)"/>
<path d="M191.643 76.4263H180.876C180.251 76.4263 179.722 76.9551 179.722 77.5799V85.1745C179.722 85.7994 180.251 86.3281 180.876 86.3281H188.038L189.624 88.0585C189.816 88.2508 190.153 88.1066 190.153 87.8662V86.3281H191.691C192.316 86.3281 192.844 85.7994 192.844 85.1745V77.5799C192.796 76.9551 192.268 76.4263 191.643 76.4263Z" fill="url(#paint63_linear_32_645)"/>
<path d="M189.336 81.3772C189.336 81.8098 189.672 82.1463 190.105 82.1463C190.537 82.1463 190.874 81.8098 190.874 81.3772C190.874 80.9446 190.537 80.6081 190.105 80.6081C189.672 80.6562 189.336 80.9927 189.336 81.3772Z" fill="#F0F9FF"/>
<path d="M185.49 81.3772C185.49 81.8098 185.827 82.1463 186.259 82.1463C186.692 82.1463 187.028 81.8098 187.028 81.3772C187.028 80.9446 186.692 80.6081 186.259 80.6081C185.827 80.6562 185.49 80.9927 185.49 81.3772Z" fill="#F0F9FF"/>
<path d="M181.645 81.3772C181.645 81.8098 181.981 82.1463 182.414 82.1463C182.846 82.1463 183.183 81.8098 183.183 81.3772C183.183 80.9446 182.846 80.6082 182.414 80.6082C181.981 80.6562 181.645 80.9927 181.645 81.3772Z" fill="#F0F9FF"/>
<path d="M71.0428 179.77L68.0627 180.155L66.8129 173.281L70.7544 173.089C70.7544 173.041 70.9467 179.482 71.0428 179.77Z" fill="#EFCDAF"/>
<path d="M49.2204 174.242C49.2204 174.242 47.3458 179.338 47.3458 179.626L43.9811 178.568L45.2789 173.281L49.2204 174.242Z" fill="#EFCDAF"/>
<path d="M70.8024 151.651C70.1295 145.835 68.7356 129.781 68.1588 124.349L57.8725 121.994C52.9216 132.568 58.0647 135.164 59.2664 137.519C59.5548 138.048 60.0355 143.239 61.8139 151.122C62.9195 162.706 64.746 176.694 64.746 176.694C64.746 176.694 69.745 176.886 71.4754 175.973L70.8024 151.651Z" fill="url(#paint64_linear_32_645)"/>
<path d="M51.6718 124.061C51.6718 124.061 49.1724 128.435 49.5088 132.28C49.7972 135.597 50.4702 145.354 50.9508 150.69C48.4033 158.765 44.6541 174.627 44.6541 174.627C44.6541 174.627 45.8558 175.348 48.7878 176.165C49.3646 176.309 51.3354 176.598 51.7199 176.502C51.7199 176.502 58.4012 156.025 59.5548 151.843C62.1985 141.941 64.2173 123.916 64.2173 123.916L51.6718 124.061Z" fill="url(#paint65_linear_32_645)"/>
<path d="M78.0605 180.731C78.0605 180.731 78.7335 180.972 78.397 181.693C77.9163 182.702 74.0229 183.76 72.1483 183.952H67.582L74.4555 181.452C74.4555 181.452 75.9937 180.78 76.6185 180.683C77.2434 180.587 78.0605 180.731 78.0605 180.731Z" fill="url(#paint66_linear_32_645)"/>
<path d="M68.0145 179.866C68.0145 179.866 69.9853 179.962 70.9947 179.578C70.9947 179.578 73.5422 180.443 74.9362 180.443C76.3301 180.443 77.676 180.443 78.0124 180.731C77.0511 180.587 76.0898 180.876 74.9362 181.549C70.6582 184.048 67.4858 183.952 67.4858 183.952C67.4858 183.952 67.1493 181.164 68.0145 179.866Z" fill="url(#paint67_linear_32_645)"/>
<path d="M52.2005 183.952C52.4409 182.27 50.3259 181.452 49.0281 181.212C48.1629 180.78 47.49 179.289 47.49 179.289C45.6634 179.289 44.1253 178.28 44.1253 178.28C44.1253 178.28 43.5966 178.665 43.1159 179.674C42.6352 180.635 42.5391 181.789 42.5391 181.789C42.5391 181.789 43.9811 182.75 44.8944 183.279C45.8076 183.808 47.7303 183.952 47.7303 183.952H52.2005Z" fill="url(#paint68_linear_32_645)"/>
<path d="M65.7555 85.1745C65.7555 85.1745 67.1013 87.3856 65.5151 89.6447C65.5151 89.6447 64.7461 90.8464 64.2654 92.9133C63.7847 94.9802 64.4096 99.0658 64.4096 99.0658C64.4096 99.0658 61.7659 99.4504 60.5642 98.8736C59.4106 98.3448 60.3239 91.6155 60.3239 91.6155C60.3239 91.6155 61.141 87.8663 61.2852 87.5298C61.4294 87.1453 63.7847 84.3574 63.7847 84.3574L65.7555 85.1745Z" fill="url(#paint69_linear_32_645)"/>
<path d="M61.6217 97.1432C61.5737 96.9028 61.6698 93.1055 61.6698 93.1055L61.3333 92.5287L59.7952 89.8851C59.7952 89.8851 57.2957 88.3469 57.0554 89.8851C56.8631 90.9906 57.0073 96.999 57.0073 96.999L54.2675 97.9603C55.2289 100.46 58.6416 100.7 58.6416 100.7C63.4964 101.133 65.5152 98.0564 65.5152 98.0564C65.5152 98.0564 61.6698 97.3835 61.6217 97.1432Z" fill="#EFCDAF"/>
<path d="M58.3051 92.1442C58.3051 92.1442 59.1222 94.6437 61.6217 95.4128V94.4995L58.3051 92.1442Z" fill="#E8A77D"/>
<path d="M83.4922 101.661C83.4441 101.421 83.396 101.229 83.2518 101.181C83.2037 101.133 83.1076 101.133 83.0115 101.133C83.2037 100.892 83.4441 100.604 83.5402 100.508C83.6844 100.316 84.3574 99.5946 84.4054 99.3062C84.4535 99.0178 84.117 99.0658 84.0209 99.1139C83.7325 99.2581 83.2999 99.7388 82.9634 100.123C82.7231 100.364 82.3386 100.844 82.0021 101.133C82.1463 100.844 82.4347 100.364 82.4828 100.171C82.5308 99.931 82.3385 99.8349 82.3385 99.8349C81.9059 100.123 81.0888 101.085 80.9446 101.517C80.8004 101.95 80.7043 102.767 80.7043 102.767C80.5601 103.248 80.1755 103.68 79.9833 103.824L75.8976 107.141L77.9164 109.112L81.5214 105.218C82.0501 104.69 82.1943 104.786 82.4828 104.594C82.9154 104.305 82.9634 104.161 83.0596 104.065C83.1557 103.921 83.2037 103.776 83.2518 103.632C83.2999 103.776 83.396 103.824 83.4922 103.68C83.5883 103.536 83.8767 102.815 83.8767 102.623C83.8767 102.431 83.9248 101.806 83.8286 101.71C83.7325 101.661 83.5883 101.661 83.4922 101.661Z" fill="#EFCDAF"/>
<path d="M65.6593 84.4535C65.6593 84.4535 65.6593 94.3072 62.9676 94.6917C61.7179 94.884 59.1223 93.442 57.8244 91.4713C57.8244 91.4713 55.8537 88.6353 56.1421 85.559C56.3824 82.4828 64.4096 80.2236 65.6593 84.4535Z" fill="#EFCDAF"/>
<path d="M65.7555 89.2121C65.7555 89.2121 66.3323 87.2414 65.6593 86.1839C65.6593 86.1839 65.1787 85.6071 63.9289 85.9916C63.0156 86.28 61.1891 87.001 59.4587 85.6552C59.4587 85.6552 59.651 87.9143 58.0167 88.9718C58.0167 88.9718 57.488 90.1735 57.4399 91.2309C57.3918 92.2403 57.2476 94.6917 57.0073 96.999L53.6907 98.1526C53.6907 98.1526 53.8349 97.047 53.931 93.1536C54.0271 89.4525 52.8255 84.9822 56.1421 83.6844C56.1421 83.6844 57.1515 80.2236 61.862 80.9446C66.4765 81.7137 68.5433 85.4629 65.7555 89.2121Z" fill="url(#paint70_linear_32_645)"/>
<path d="M58.8819 88.6353C58.8819 88.6353 58.3051 87.0491 57.2957 87.8662C56.5266 88.4431 56.7189 91.1348 58.0648 91.279" fill="#EFCDAF"/>
<path d="M77.1954 106.132C77.1954 106.132 74.5517 108.15 72.3406 109.689C71.4754 107.862 71.0909 107.093 69.0721 102.431C67.3417 98.441 66.0439 98.2006 66.0439 98.2006L64.5057 107.91C64.5057 107.91 68.8798 115.457 71.187 115.841C72.4848 116.082 76.907 111.9 79.4065 109.16C79.4065 109.16 78.7335 107.429 77.628 106.324C77.5319 106.276 77.1954 106.132 77.1954 106.132Z" fill="url(#paint71_linear_32_645)"/>
<path d="M51.0951 116.562C51.2393 118.629 49.7492 127.954 49.605 129.108C49.5569 129.636 49.7492 129.781 49.7492 129.781C49.7492 129.781 60.9007 133.049 68.5433 129.781C68.5433 129.781 68.8317 129.684 68.7837 128.963C68.6395 127.666 67.5339 112.621 67.5339 112.621C67.5339 112.621 68.7356 110.121 69.024 108.583C69.3124 107.045 67.582 104.353 67.3417 103.152C67.1494 101.95 65.9958 98.2006 65.9958 98.2006C65.9958 98.2006 65.1306 97.9603 62.6311 97.3835C62.6311 97.3835 60.9968 101.71 55.6133 97.3835C55.0846 97.4796 52.8255 97.9122 52.0564 98.0564C51.9603 98.0564 51.9122 98.1045 51.8641 98.1045C51.3835 98.2487 50.4221 98.8255 49.7973 99.6907C49.2685 101.469 48.9321 104.69 49.7492 108.247C50.4221 110.986 50.9028 113.967 51.0951 116.562Z" fill="url(#paint72_linear_32_645)"/>
<path d="M50.6625 123.436L61.1411 127.425C61.4295 127.521 61.7179 127.377 61.814 127.137L67.6782 111.755C67.7743 111.467 67.6301 111.179 67.3897 111.083L56.9112 107.093C56.6228 106.997 56.3344 107.141 56.2382 107.381L50.3741 122.763C50.2779 123.003 50.4221 123.292 50.6625 123.436Z" fill="#22256F"/>
<path d="M51.8641 125.022L62.535 126.752C62.9195 126.8 63.304 126.56 63.4002 126.127L65.9477 110.313C65.9958 109.929 65.7554 109.544 65.3228 109.448L54.652 107.718C54.2675 107.67 53.8829 107.91 53.7868 108.343L51.2392 124.157C51.1912 124.541 51.4796 124.926 51.8641 125.022Z" fill="url(#paint73_linear_32_645)"/>
<path d="M65.4671 117.716C65.6593 117.716 65.8997 117.572 65.8035 117.427C65.7074 117.283 64.3615 116.706 64.0251 116.803C63.6886 116.899 63.2079 117.187 62.8715 117.283C62.535 117.379 61.814 117.283 61.814 117.283L57.2957 116.322L55.8537 118.917L62.2466 119.302C62.2466 119.302 62.8715 119.59 63.3521 119.783H63.4002C63.6405 119.879 64.0251 120.023 64.2654 120.023C64.6499 120.023 64.8422 119.783 64.8422 119.638C65.0345 119.59 65.1306 119.446 65.1306 119.35C65.1306 119.254 65.1306 119.206 65.0825 119.158C65.2748 119.11 65.3709 118.966 65.3709 118.869C65.3709 118.773 65.3709 118.725 65.3229 118.677C65.5151 118.629 65.6113 118.485 65.6113 118.389C65.6113 118.245 65.5151 118.1 65.5151 118.1C65.419 117.956 64.5538 117.716 64.3135 117.62C64.698 117.668 65.2748 117.716 65.4671 117.716Z" fill="#EFCDAF"/>
<path d="M57.5841 116.322L51.8641 114.976C52.6332 112.044 53.5945 107.622 54.2194 104.882C54.9885 101.469 54.0752 98.441 52.1044 98.0564C52.0083 98.0564 51.9602 98.1045 51.9122 98.1045C51.7199 98.1526 50.4221 98.5371 49.7972 99.5946C48.884 101.133 48.4994 103.488 48.4994 103.488C48.4994 103.488 45.7115 117.764 47.6823 118.677C49.3646 119.494 56.3343 120.408 56.3343 120.408C56.3343 120.408 57.0073 119.542 57.5841 117.331C57.7763 116.658 57.5841 116.322 57.5841 116.322Z" fill="url(#paint74_linear_32_645)"/>
<path opacity="0.3" d="M181.116 141.701C181.116 141.605 181.068 141.557 181.068 141.461C181.02 141.172 180.924 140.836 180.828 140.548C180.587 139.875 180.299 139.25 179.914 138.673L180.828 137.76L178.665 135.597L178.616 135.645L177.751 136.51C176.886 135.933 175.877 135.501 174.771 135.26V134.107H171.695V135.404C170.589 135.597 169.628 136.029 168.715 136.654L167.801 135.741L165.638 137.904L166.552 138.817C165.975 139.682 165.542 140.692 165.302 141.797H164.004V144.874H165.302C165.494 145.979 165.927 146.94 166.552 147.854L165.638 148.767L167.801 150.93L168.715 150.017C169.58 150.594 170.589 151.026 171.695 151.266V152.564H174.771V151.266C175.877 151.074 176.838 150.642 177.751 150.017L178.616 150.882L178.665 150.93L179.962 149.632L180.828 148.767L179.962 147.902L179.914 147.854L179.962 147.806C180.539 146.94 180.924 145.931 181.164 144.874H182.462V141.797H181.116V141.701ZM173.233 148.334C170.397 148.334 168.138 146.027 168.138 143.239C168.138 140.403 170.445 138.144 173.233 138.144C176.021 138.144 178.328 140.451 178.328 143.239C178.328 146.075 176.069 148.334 173.233 148.334Z" fill="#ACE2F9"/>
<path opacity="0.1" d="M250.429 77.0512C250.429 77.0031 250.429 76.9551 250.38 76.907C250.332 76.7147 250.284 76.5705 250.236 76.4263C250.092 76.0418 249.948 75.7053 249.708 75.4169L250.188 74.9363L248.987 73.7346L248.506 74.2153C248.025 73.8788 247.448 73.6385 246.872 73.5423V72.8213H245.189V73.5423C244.564 73.6385 244.036 73.8788 243.555 74.2153L243.074 73.7346L241.873 74.9363L242.353 75.4169C242.017 75.8976 241.776 76.4744 241.68 77.0512H240.959V78.7335H241.68C241.776 79.3584 242.017 79.8871 242.353 80.3678L241.873 80.8485L243.074 82.0502L243.555 81.5695C244.036 81.906 244.612 82.1463 245.189 82.2424V82.9634H246.872V82.2424C247.496 82.1463 248.025 81.906 248.506 81.5695L248.987 82.0502L249.708 81.3292L250.188 80.8485L249.708 80.3678C249.708 80.3678 249.708 80.3678 249.708 80.3198C250.044 79.8391 250.236 79.3103 250.38 78.6855H251.101V77.0031H250.429V77.0512ZM246.006 80.7524C244.42 80.7524 243.17 79.5026 243.17 77.9164C243.17 76.3302 244.42 75.0805 246.006 75.0805C247.593 75.0805 248.842 76.3302 248.842 77.9164C248.842 79.4546 247.593 80.7524 246.006 80.7524Z" fill="#ACE2F9"/>
<path opacity="0.2" d="M54.604 70.0334C54.604 69.9854 54.604 69.9373 54.5559 69.8892C54.5078 69.697 54.4598 69.5047 54.4117 69.3124C54.2675 68.8798 54.0272 68.4472 53.7868 68.0627L54.4117 67.4378L52.9697 65.9958L52.9216 66.0439L52.3448 66.6207C51.768 66.2362 51.0951 65.9478 50.326 65.8036V64.9384H48.2591V65.8036C47.5381 65.9478 46.8652 66.2362 46.2403 66.6207L45.6154 65.9958L44.1734 67.4378L44.7983 68.0627C44.4138 68.6395 44.1254 69.3124 43.9812 70.0815H43.116V72.1484H43.9812C44.1254 72.8694 44.4138 73.5423 44.7983 74.1672L44.1734 74.7921L45.6154 76.2341L46.2403 75.6092C46.8171 75.9937 47.4901 76.2821 48.2591 76.4263V77.2915H50.326V76.4263C51.047 76.2821 51.7199 75.9937 52.3448 75.6092L52.9216 76.186L52.9697 76.2341L53.8349 75.3689L54.4117 74.7921L53.8349 74.2153L53.7868 74.1672C53.7868 74.1672 53.7868 74.1191 53.8349 74.1191C54.2194 73.5423 54.5078 72.8694 54.652 72.1484H55.5172V70.0815H54.604V70.0334ZM49.3166 74.5037C47.442 74.5037 45.9038 72.9655 45.9038 71.0909C45.9038 69.2163 47.442 67.6782 49.3166 67.6782C51.1912 67.6782 52.7293 69.2163 52.7293 71.0909C52.7293 72.9655 51.2393 74.5037 49.3166 74.5037Z" fill="#ACE2F9"/>
<path d="M100.46 141.653H82.3385C80.8965 141.653 79.7429 140.499 79.7429 139.057V122.522C79.7429 121.08 80.8965 119.927 82.3385 119.927H100.46C101.902 119.927 103.055 121.08 103.055 122.522V139.057C103.007 140.499 101.854 141.653 100.46 141.653Z" fill="url(#paint75_linear_32_645)"/>
<path d="M99.6907 140.115H83.0596C82.1463 140.115 81.3773 139.346 81.3773 138.433V123.147C81.3773 122.234 82.1463 121.465 83.0596 121.465H99.6907C100.604 121.465 101.373 122.234 101.373 123.147V138.433C101.421 139.394 100.652 140.115 99.6907 140.115Z" fill="#EDF7FF"/>
<path d="M95.605 140.115H83.0595C82.3385 140.115 81.7137 139.682 81.4733 139.057L86.9529 130.886C87.5298 130.021 88.7795 130.021 89.3563 130.886L91.0867 133.482L95.605 140.115Z" fill="url(#paint76_linear_32_645)"/>
<path d="M101.421 130.982V138.433C101.421 139.346 100.652 140.115 99.7388 140.115H86.7126L91.1829 133.482L96.0857 126.224C96.6144 125.455 97.72 125.455 98.2487 126.224L101.421 130.982Z" fill="url(#paint77_linear_32_645)"/>
<path d="M90.2216 125.31C90.2216 126.512 89.2603 127.425 88.1066 127.425C86.905 127.425 85.9917 126.464 85.9917 125.31C85.9917 124.157 86.953 123.195 88.1066 123.195C89.2603 123.147 90.2216 124.109 90.2216 125.31Z" fill="url(#paint78_linear_32_645)"/>
<path d="M101.037 35.8098C101.037 38.5977 99.0659 40.8088 96.6145 40.8088C94.1631 40.8088 92.1923 38.5497 92.1923 35.8098C92.1923 33.022 94.1631 30.8109 96.6145 30.8109C99.0659 30.8109 101.037 33.022 101.037 35.8098Z" fill="url(#paint79_linear_32_645)"/>
<path d="M98.0083 41.9624C97.095 41.8662 96.1337 41.8662 95.2204 41.9624C91.327 42.443 88.0585 45.2309 87.0491 49.0282H96.6144H106.228C105.17 45.2309 101.95 42.443 98.0083 41.9624Z" fill="url(#paint80_linear_32_645)"/>
<path d="M107.91 26.629C107.91 26.9174 107.67 27.1578 107.381 27.1578C107.093 27.1578 106.853 26.9174 106.853 26.629C106.853 26.3406 107.093 26.1003 107.381 26.1003C107.67 26.1003 107.91 26.3406 107.91 26.629Z" fill="url(#paint81_linear_32_645)"/>
<path d="M110.362 26.629C110.362 26.9174 110.121 27.1578 109.833 27.1578C109.544 27.1578 109.304 26.9174 109.304 26.629C109.304 26.3406 109.544 26.1003 109.833 26.1003C110.121 26.1003 110.362 26.3406 110.362 26.629Z" fill="url(#paint82_linear_32_645)"/>
<path d="M112.765 26.629C112.765 26.9174 112.525 27.1578 112.236 27.1578C111.948 27.1578 111.707 26.9174 111.707 26.629C111.707 26.3406 111.948 26.1003 112.236 26.1003C112.525 26.1003 112.765 26.3406 112.765 26.629Z" fill="url(#paint83_linear_32_645)"/>
<path d="M113.101 24.9948H80.2236C79.5507 24.9948 79.022 25.5235 79.022 26.1965V48.0669C79.022 48.7398 79.5507 49.2686 80.2236 49.2686H113.101C113.774 49.2686 114.303 48.7398 114.303 48.0669V26.1965C114.303 25.5235 113.726 24.9948 113.101 24.9948ZM80.1756 25.3793H113.053C113.486 25.3793 113.87 25.7639 113.87 26.1965V27.7346H79.3584V26.1965C79.3584 25.7639 79.743 25.3793 80.1756 25.3793ZM113.101 48.884H80.2236C79.791 48.884 79.4065 48.4995 79.4065 48.0669V28.1191H113.919V48.0669C113.919 48.4995 113.534 48.884 113.101 48.884Z" fill="url(#paint84_linear_32_645)"/>
<path d="M270.905 112.284C270.905 114.111 269.367 115.601 267.54 115.553C265.714 115.553 264.224 114.015 264.272 112.188C264.272 110.362 265.81 108.871 267.636 108.92C269.463 108.92 270.953 110.41 270.905 112.284Z" fill="#BDF3FF"/>
<path d="M266.146 112.38L267.396 113.63L269.175 111.323" stroke="white" stroke-width="1.4684" stroke-miterlimit="10" stroke-linecap="round" stroke-linejoin="round"/>
<path opacity="0.5" d="M43.2122 105.555C43.2122 106.228 42.6834 106.757 42.0105 106.757C41.3375 106.757 40.8088 106.228 40.8088 105.555C40.8088 104.882 41.3375 104.353 42.0105 104.353C42.6834 104.353 43.2122 104.882 43.2122 105.555Z" fill="#BDF3FF"/>
<path d="M40.8569 134.395C40.8569 134.828 40.5204 135.164 40.0878 135.164C39.6552 135.164 39.3187 134.828 39.3187 134.395C39.3187 133.962 39.6552 133.626 40.0878 133.626C40.5204 133.674 40.8569 134.01 40.8569 134.395Z" fill="#BDF3FF"/>
<path opacity="0.3" d="M85.1264 163.331C85.1264 163.764 84.7899 164.1 84.3573 164.1C83.9247 164.1 83.5883 163.764 83.5883 163.331C83.5883 162.899 83.9247 162.562 84.3573 162.562C84.7899 162.61 85.1264 162.947 85.1264 163.331Z" fill="#BDF3FF"/>
<path opacity="0.1" d="M24.9948 153.333C24.9948 154.199 24.3219 154.871 23.4567 154.871C22.5915 154.871 21.9185 154.199 21.9185 153.333C21.9185 152.468 22.5915 151.795 23.4567 151.795C24.2738 151.795 24.9948 152.468 24.9948 153.333Z" fill="#BDF3FF"/>
<path opacity="0.1" d="M280.086 167.753C280.086 168.619 279.413 169.292 278.548 169.292C277.682 169.292 277.009 168.619 277.009 167.753C277.009 166.888 277.682 166.215 278.548 166.215C279.365 166.215 280.086 166.888 280.086 167.753Z" fill="#BDF3FF"/>
<path opacity="0.1" d="M152.084 1.53814C152.084 2.40334 151.411 3.07628 150.546 3.07628C149.68 3.07628 149.007 2.40334 149.007 1.53814C149.007 0.672936 149.68 0 150.546 0C151.363 0 152.084 0.672936 152.084 1.53814Z" fill="#BDF3FF"/>
<path opacity="0.1" d="M60.9488 48.6918C60.9488 49.8454 60.0355 50.7586 58.8819 50.7586C57.7283 50.7586 56.8151 49.8454 56.8151 48.6918C56.8151 47.5381 57.7283 46.6249 58.8819 46.6249C60.0355 46.6249 60.9488 47.5862 60.9488 48.6918Z" fill="#BDF3FF"/>
<path opacity="0.1" d="M245.237 34.3678C245.237 35.5214 244.324 36.4347 243.17 36.4347C242.017 36.4347 241.104 35.5214 241.104 34.3678C241.104 33.2142 242.017 32.3009 243.17 32.3009C244.324 32.3009 245.237 33.2623 245.237 34.3678Z" fill="#BDF3FF"/>
<path d="M231.923 62.8234C231.923 63.4963 231.394 64.0251 230.721 64.0251C230.048 64.0251 229.519 63.4963 229.519 62.8234C229.519 62.1505 230.048 61.6217 230.721 61.6217C231.394 61.6217 231.923 62.1505 231.923 62.8234Z" fill="#BDF3FF"/>
<path d="M217.935 156.265C217.935 156.938 217.407 157.467 216.734 157.467C216.061 157.467 215.532 156.938 215.532 156.265C215.532 155.592 216.061 155.064 216.734 155.064C217.407 155.016 217.935 155.544 217.935 156.265Z" fill="#98E7F4"/>
<path d="M141.076 33.9833H140.115V33.0219C140.115 32.8297 139.923 32.6374 139.73 32.6374C139.538 32.6374 139.346 32.8297 139.346 33.0219V33.9833H138.385C138.192 33.9833 138 34.1755 138 34.3678C138 34.5601 138.192 34.7523 138.385 34.7523H139.346V35.7137C139.346 35.9059 139.538 36.0982 139.73 36.0982C139.923 36.0982 140.115 35.9059 140.115 35.7137V34.7523H141.076C141.269 34.7523 141.461 34.5601 141.461 34.3678C141.461 34.1755 141.317 33.9833 141.076 33.9833Z" fill="#BDF3FF"/>
<path d="M219.906 85.1745C219.714 85.1745 219.521 84.9822 219.521 84.79V82.0502C219.521 81.8579 219.714 81.6656 219.906 81.6656C220.098 81.6656 220.29 81.8579 220.29 82.0502V84.79C220.29 85.0303 220.146 85.1745 219.906 85.1745Z" fill="#BDF3FF"/>
<path d="M221.3 83.8286H218.56C218.368 83.8286 218.176 83.6364 218.176 83.4441C218.176 83.2518 218.368 83.0596 218.56 83.0596H221.3C221.492 83.0596 221.684 83.2518 221.684 83.4441C221.684 83.6364 221.492 83.8286 221.3 83.8286Z" fill="#BDF3FF"/>
<path d="M89.4525 110.458H88.4912V109.496C88.4912 109.304 88.2989 109.112 88.1066 109.112C87.9144 109.112 87.7221 109.304 87.7221 109.496V110.458H86.7608C86.5685 110.458 86.3762 110.65 86.3762 110.842C86.3762 111.034 86.5685 111.227 86.7608 111.227H87.7221V112.188C87.7221 112.38 87.9144 112.573 88.1066 112.573C88.2989 112.573 88.4912 112.38 88.4912 112.188V111.227H89.4525C89.6448 111.227 89.837 111.034 89.837 110.842C89.837 110.65 89.6448 110.458 89.4525 110.458Z" fill="#BDF3FF"/>
<path d="M238.892 52.8255H237.931V51.8642C237.931 51.6719 237.739 51.4796 237.547 51.4796C237.354 51.4796 237.162 51.6719 237.162 51.8642V52.8255H236.201C236.008 52.8255 235.816 53.0178 235.816 53.21C235.816 53.4023 236.008 53.5946 236.201 53.5946H237.162V54.5559C237.162 54.7482 237.354 54.9404 237.547 54.9404C237.739 54.9404 237.931 54.7482 237.931 54.5559V53.5946H238.892C239.085 53.5946 239.277 53.4023 239.277 53.21C239.277 53.0178 239.085 52.8255 238.892 52.8255Z" fill="#98E7F4"/>
<path opacity="0.5" d="M183.76 115.457H182.798V114.495C182.798 114.303 182.606 114.111 182.414 114.111C182.222 114.111 182.029 114.303 182.029 114.495V115.457H181.068C180.876 115.457 180.683 115.649 180.683 115.841C180.683 116.033 180.876 116.226 181.068 116.226H182.029V117.187C182.029 117.379 182.222 117.572 182.414 117.572C182.606 117.572 182.798 117.379 182.798 117.187V116.226H183.76C183.952 116.226 184.144 116.033 184.144 115.841C184.144 115.649 184 115.457 183.76 115.457Z" fill="#BDF3FF"/>
<path d="M270.136 161.793H247.881C246.871 161.793 246.006 160.976 246.006 159.918V143.48C246.006 142.47 246.823 141.605 247.881 141.605H270.136C271.145 141.605 272.01 142.422 272.01 143.48V159.918C271.962 160.976 271.145 161.793 270.136 161.793Z" fill="url(#paint85_linear_32_645)"/>
<path d="M266.723 157.948H251.246C250.525 157.948 249.948 157.371 249.948 156.65V145.21C249.948 144.489 250.525 143.912 251.246 143.912H266.723C267.444 143.912 268.021 144.489 268.021 145.21V156.65C268.021 157.371 267.444 157.948 266.723 157.948Z" fill="url(#paint86_linear_32_645)"/>
<path d="M267.636 159.967H250.38C250.14 159.967 249.996 159.774 249.996 159.582C249.996 159.342 250.188 159.198 250.38 159.198H267.636C267.877 159.198 268.021 159.39 268.021 159.582C268.021 159.774 267.829 159.967 267.636 159.967Z" fill="url(#paint87_linear_32_645)"/>
<path d="M268.021 159.582C268.021 159.822 267.829 159.967 267.636 159.967H256.052V159.149H267.636C267.829 159.197 268.021 159.342 268.021 159.582Z" fill="url(#paint88_linear_32_645)"/>
<path d="M256.004 160.64C256.588 160.64 257.062 160.166 257.062 159.582C257.062 158.998 256.588 158.525 256.004 158.525C255.42 158.525 254.947 158.998 254.947 159.582C254.947 160.166 255.42 160.64 256.004 160.64Z" fill="url(#paint89_linear_32_645)"/>
<path d="M256.629 159.582C256.629 159.919 256.341 160.207 256.004 160.207C255.668 160.207 255.379 159.919 255.379 159.582C255.379 159.246 255.668 158.957 256.004 158.957C256.341 158.957 256.629 159.246 256.629 159.582Z" fill="url(#paint90_linear_32_645)"/>
<path d="M257.398 148.286C257.302 148.286 257.254 148.382 257.254 148.479V149.344V152.66C256.966 152.516 256.533 152.564 256.196 152.708C255.62 152.997 255.331 153.574 255.523 154.006C255.764 154.439 256.389 154.583 256.965 154.295C257.494 154.054 257.783 153.526 257.686 153.141V149.296L261.388 148.623V151.843C261.099 151.699 260.667 151.747 260.33 151.891C259.753 152.18 259.465 152.757 259.657 153.189C259.898 153.622 260.522 153.766 261.099 153.478C261.628 153.237 261.916 152.708 261.82 152.324V148.527V147.71C261.82 147.565 261.724 147.517 261.58 147.517L257.398 148.286Z" fill="url(#paint91_linear_32_645)"/>
<path d="M175.684 58.4974H152.42C151.363 58.4974 150.497 57.6322 150.497 56.5747V39.7033C150.497 38.6458 151.363 37.7806 152.42 37.7806H175.684C176.742 37.7806 177.607 38.6458 177.607 39.7033V56.5747C177.607 57.6322 176.742 58.4974 175.684 58.4974Z" fill="url(#paint92_linear_32_645)"/>
<path d="M174.915 57.2957H153.189C152.564 57.2957 152.035 56.767 152.035 56.1421V40.0878C152.035 39.4629 152.564 38.9342 153.189 38.9342H174.915C175.54 38.9342 176.069 39.4629 176.069 40.0878V56.1421C176.117 56.767 175.588 57.2957 174.915 57.2957Z" stroke="#EDF7FF" stroke-width="0.5116" stroke-miterlimit="10"/>
<path d="M157.659 44.2215C157.659 44.2215 157.755 43.5967 157.996 43.4525C158.236 43.3563 159.774 42.8757 160.255 42.8757C160.736 42.8757 160.976 43.6928 160.976 43.6928L157.659 44.2215Z" fill="url(#paint93_linear_32_645)"/>
<path d="M170.109 44.2215C170.109 44.2215 170.012 43.5967 169.772 43.4525C169.532 43.3563 167.994 42.8757 167.513 42.8757C167.032 42.8757 166.792 43.6928 166.792 43.6928L170.109 44.2215Z" fill="url(#paint94_linear_32_645)"/>
<path d="M171.118 44.8945C170.109 43.3563 164.869 43.2121 163.908 43.2121C162.899 43.2121 157.707 43.3563 156.698 44.8945C155.977 46 154.198 52.3448 154.343 52.8736C154.487 53.3543 156.602 53.7388 157.467 52.8736C157.803 52.5371 158.236 51.9122 158.573 51.3354C159.197 50.326 160.399 49.7973 161.553 50.0857C162.37 50.278 163.283 50.4702 163.908 50.4702C164.581 50.4702 165.446 50.278 166.263 50.0857C167.417 49.7973 168.618 50.326 169.243 51.3354C169.628 51.9122 170.012 52.5371 170.349 52.8736C171.214 53.7388 173.329 53.3543 173.473 52.8736C173.617 52.3448 171.839 46 171.118 44.8945Z" fill="#EDF7FF"/>
<path d="M162.466 48.6918C162.466 49.2686 162.033 49.7012 161.457 49.7012C160.88 49.7012 160.447 49.2686 160.447 48.6918C160.447 48.115 160.88 47.6824 161.457 47.6824C161.985 47.6824 162.466 48.163 162.466 48.6918Z" fill="url(#paint95_linear_32_645)"/>
<path d="M167.369 48.6918C167.369 49.2686 166.936 49.7012 166.359 49.7012C165.783 49.7012 165.35 49.2686 165.35 48.6918C165.35 48.115 165.783 47.6824 166.359 47.6824C166.888 47.6824 167.369 48.163 167.369 48.6918Z" fill="url(#paint96_linear_32_645)"/>
<path d="M159.294 46.3846H158.957V46.0481C158.957 45.7116 158.669 45.4232 158.332 45.4232C157.996 45.4232 157.707 45.7116 157.707 46.0481V46.3846H157.371C157.034 46.3846 156.746 46.673 156.746 47.0094C156.746 47.3459 157.034 47.6343 157.371 47.6343H157.707V47.9708C157.707 48.3072 157.996 48.5956 158.332 48.5956C158.669 48.5956 158.957 48.3072 158.957 47.9708V47.6343H159.294C159.63 47.6343 159.918 47.3459 159.918 47.0094C159.966 46.673 159.678 46.3846 159.294 46.3846Z" fill="url(#paint97_linear_32_645)"/>
<path d="M169.772 46.0481C169.772 46.3846 169.484 46.673 169.147 46.673C168.811 46.673 168.522 46.3846 168.522 46.0481C168.522 45.7116 168.811 45.4232 169.147 45.4232C169.484 45.4232 169.772 45.7116 169.772 46.0481Z" fill="url(#paint98_linear_32_645)"/>
<path d="M169.772 48.0188C169.772 48.3553 169.484 48.6437 169.147 48.6437C168.811 48.6437 168.522 48.3553 168.522 48.0188C168.522 47.6824 168.811 47.394 169.147 47.394C169.484 47.394 169.772 47.6343 169.772 48.0188Z" fill="url(#paint99_linear_32_645)"/>
<path d="M170.157 47.6343C169.82 47.6343 169.532 47.3459 169.532 47.0094C169.532 46.6729 169.82 46.3845 170.157 46.3845C170.493 46.3845 170.781 46.6729 170.781 47.0094C170.781 47.3939 170.493 47.6343 170.157 47.6343Z" fill="url(#paint100_linear_32_645)"/>
<path d="M168.186 47.6343C167.849 47.6343 167.561 47.3459 167.561 47.0094C167.561 46.6729 167.849 46.3845 168.186 46.3845C168.522 46.3845 168.811 46.6729 168.811 47.0094C168.811 47.3939 168.522 47.6343 168.186 47.6343Z" fill="url(#paint101_linear_32_645)"/>
<path d="M0 183.952H273.741" stroke="url(#paint102_linear_32_645)" stroke-miterlimit="10"/>
<defs>
<linearGradient id="paint0_linear_32_645" x1="175.77" y1="178.27" x2="194.401" y2="166.048" gradientUnits="userSpaceOnUse">
<stop stop-color="#2E3E9D"/>
<stop offset="1" stop-color="#79D3FD"/>
</linearGradient>
<linearGradient id="paint1_linear_32_645" x1="113.398" y1="165.934" x2="104.157" y2="145.659" gradientUnits="userSpaceOnUse">
<stop stop-color="#2E3E9D"/>
<stop offset="1" stop-color="#79D3FD"/>
</linearGradient>
<linearGradient id="paint2_linear_32_645" x1="135.141" y1="194.872" x2="135.141" y2="149.027" gradientUnits="userSpaceOnUse">
<stop stop-color="#002AA2"/>
<stop offset="1" stop-color="#79D3FD"/>
</linearGradient>
<linearGradient id="paint3_linear_32_645" x1="198.105" y1="29.7539" x2="225.008" y2="56.657" gradientUnits="userSpaceOnUse">
<stop stop-color="#F9DD68"/>
<stop offset="1" stop-color="#F9A942"/>
</linearGradient>
<linearGradient id="paint4_linear_32_645" x1="207.025" y1="46.391" x2="216.059" y2="37.3567" gradientUnits="userSpaceOnUse">
<stop stop-color="#10274A"/>
<stop offset="1" stop-color="#00347F"/>
</linearGradient>
<linearGradient id="paint5_linear_32_645" x1="203.657" y1="49.2086" x2="219.843" y2="65.3945" gradientUnits="userSpaceOnUse">
<stop stop-color="#10274A"/>
<stop offset="1" stop-color="#00347F"/>
</linearGradient>
<linearGradient id="paint6_linear_32_645" x1="211.002" y1="51.8624" x2="222.065" y2="62.9257" gradientUnits="userSpaceOnUse">
<stop stop-color="white"/>
<stop offset="1" stop-color="#79D3FD"/>
</linearGradient>
<linearGradient id="paint7_linear_32_645" x1="205.873" y1="56.2215" x2="208.522" y2="58.8706" gradientUnits="userSpaceOnUse">
<stop stop-color="#10274A"/>
<stop offset="1" stop-color="#00347F"/>
</linearGradient>
<linearGradient id="paint8_linear_32_645" x1="206.467" y1="56.8155" x2="207.97" y2="58.318" gradientUnits="userSpaceOnUse">
<stop stop-color="white"/>
<stop offset="1" stop-color="#79D3FD"/>
</linearGradient>
<linearGradient id="paint9_linear_32_645" x1="65.8992" y1="61.4087" x2="79.6193" y2="75.1287" gradientUnits="userSpaceOnUse">
<stop stop-color="#F9DD68"/>
<stop offset="1" stop-color="#F9A942"/>
</linearGradient>
<linearGradient id="paint10_linear_32_645" x1="65.7867" y1="61.5212" x2="79.5066" y2="75.2412" gradientUnits="userSpaceOnUse">
<stop stop-color="#F9DD68"/>
<stop offset="1" stop-color="#F9A942"/>
</linearGradient>
<linearGradient id="paint11_linear_32_645" x1="223.454" y1="150.481" x2="240.016" y2="150.481" gradientUnits="userSpaceOnUse">
<stop stop-color="#00006C"/>
<stop offset="1" stop-color="#5793FB"/>
</linearGradient>
<linearGradient id="paint12_linear_32_645" x1="229.483" y1="183.957" x2="229.483" y2="119.554" gradientUnits="userSpaceOnUse">
<stop stop-color="#5793FB"/>
<stop offset="0.9946" stop-color="#00009A"/>
</linearGradient>
<linearGradient id="paint13_linear_32_645" x1="233.238" y1="134.879" x2="233.238" y2="92.8649" gradientUnits="userSpaceOnUse">
<stop stop-color="#00006C"/>
<stop offset="1" stop-color="#5793FB"/>
</linearGradient>
<linearGradient id="paint14_linear_32_645" x1="232.175" y1="133.686" x2="232.175" y2="92.6061" gradientUnits="userSpaceOnUse">
<stop stop-color="#A6E5D4"/>
<stop offset="1" stop-color="#79D3FD"/>
</linearGradient>
<linearGradient id="paint15_linear_32_645" x1="207.485" y1="112.333" x2="256.866" y2="112.333" gradientUnits="userSpaceOnUse">
<stop stop-color="#2C89FB"/>
<stop offset="1" stop-color="#0059FF"/>
</linearGradient>
<linearGradient id="paint16_linear_32_645" x1="222.032" y1="107.045" x2="239.362" y2="107.045" gradientUnits="userSpaceOnUse">
<stop stop-color="#A6E5D4"/>
<stop offset="1" stop-color="#79D3FD"/>
</linearGradient>
<linearGradient id="paint17_linear_32_645" x1="240.195" y1="118.948" x2="249.708" y2="118.948" gradientUnits="userSpaceOnUse">
<stop stop-color="#A6E5D4"/>
<stop offset="1" stop-color="#79D3FD"/>
</linearGradient>
<linearGradient id="paint18_linear_32_645" x1="224.266" y1="122.811" x2="243.856" y2="122.811" gradientUnits="userSpaceOnUse">
<stop stop-color="#A6E5D4"/>
<stop offset="1" stop-color="#79D3FD"/>
</linearGradient>
<linearGradient id="paint19_linear_32_645" x1="226.131" y1="122.966" x2="242.007" y2="122.966" gradientUnits="userSpaceOnUse">
<stop stop-color="#A6E5D4"/>
<stop offset="1" stop-color="#79D3FD"/>
</linearGradient>
<linearGradient id="paint20_linear_32_645" x1="242.487" y1="101.076" x2="252.007" y2="101.076" gradientUnits="userSpaceOnUse">
<stop stop-color="#A6E5D4"/>
<stop offset="1" stop-color="#79D3FD"/>
</linearGradient>
<linearGradient id="paint21_linear_32_645" x1="248.895" y1="105.279" x2="244.436" y2="103.866" gradientUnits="userSpaceOnUse">
<stop stop-color="white"/>
<stop offset="1" stop-color="#E2F5FF"/>
</linearGradient>
<linearGradient id="paint22_linear_32_645" x1="248.755" y1="106.162" x2="244.297" y2="104.75" gradientUnits="userSpaceOnUse">
<stop stop-color="white"/>
<stop offset="1" stop-color="#E2F5FF"/>
</linearGradient>
<linearGradient id="paint23_linear_32_645" x1="248.615" y1="107.045" x2="244.157" y2="105.633" gradientUnits="userSpaceOnUse">
<stop stop-color="white"/>
<stop offset="1" stop-color="#E2F5FF"/>
</linearGradient>
<linearGradient id="paint24_linear_32_645" x1="248.475" y1="107.929" x2="246.243" y2="107.222" gradientUnits="userSpaceOnUse">
<stop stop-color="white"/>
<stop offset="1" stop-color="#E2F5FF"/>
</linearGradient>
<linearGradient id="paint25_linear_32_645" x1="219.166" y1="120.44" x2="214.708" y2="119.028" gradientUnits="userSpaceOnUse">
<stop stop-color="white"/>
<stop offset="1" stop-color="#E2F5FF"/>
</linearGradient>
<linearGradient id="paint26_linear_32_645" x1="219.026" y1="121.324" x2="214.568" y2="119.911" gradientUnits="userSpaceOnUse">
<stop stop-color="white"/>
<stop offset="1" stop-color="#E2F5FF"/>
</linearGradient>
<linearGradient id="paint27_linear_32_645" x1="218.886" y1="122.207" x2="214.428" y2="120.795" gradientUnits="userSpaceOnUse">
<stop stop-color="white"/>
<stop offset="1" stop-color="#E2F5FF"/>
</linearGradient>
<linearGradient id="paint28_linear_32_645" x1="218.746" y1="123.091" x2="216.515" y2="122.383" gradientUnits="userSpaceOnUse">
<stop stop-color="white"/>
<stop offset="1" stop-color="#E2F5FF"/>
</linearGradient>
<linearGradient id="paint29_linear_32_645" x1="221.205" y1="100.428" x2="216.747" y2="99.0156" gradientUnits="userSpaceOnUse">
<stop stop-color="white"/>
<stop offset="1" stop-color="#E2F5FF"/>
</linearGradient>
<linearGradient id="paint30_linear_32_645" x1="221.065" y1="101.311" x2="216.607" y2="99.899" gradientUnits="userSpaceOnUse">
<stop stop-color="white"/>
<stop offset="1" stop-color="#E2F5FF"/>
</linearGradient>
<linearGradient id="paint31_linear_32_645" x1="220.925" y1="102.195" x2="218.694" y2="101.488" gradientUnits="userSpaceOnUse">
<stop stop-color="white"/>
<stop offset="1" stop-color="#E2F5FF"/>
</linearGradient>
<linearGradient id="paint32_linear_32_645" x1="136.184" y1="128.528" x2="136.184" y2="50.8733" gradientUnits="userSpaceOnUse">
<stop stop-color="#8AFFFF"/>
<stop offset="1" stop-color="#79D3FD" stop-opacity="0"/>
</linearGradient>
<linearGradient id="paint33_linear_32_645" x1="136.184" y1="128.528" x2="136.184" y2="50.8733" gradientUnits="userSpaceOnUse">
<stop stop-color="#8AFFFF"/>
<stop offset="1" stop-color="#79D3FD" stop-opacity="0"/>
</linearGradient>
<linearGradient id="paint34_linear_32_645" x1="136.183" y1="194.616" x2="136.183" y2="134.36" gradientUnits="userSpaceOnUse">
<stop stop-color="#8AFFFF"/>
<stop offset="1" stop-color="#423BFD"/>
</linearGradient>
<linearGradient id="paint35_linear_32_645" x1="136.183" y1="183.847" x2="136.183" y2="136.917" gradientUnits="userSpaceOnUse">
<stop stop-color="#8AFFFF"/>
<stop offset="1" stop-color="#79D3FD"/>
</linearGradient>
<linearGradient id="paint36_linear_32_645" x1="110.099" y1="131.984" x2="162.268" y2="131.984" gradientUnits="userSpaceOnUse">
<stop stop-color="#8AFFFF"/>
<stop offset="1" stop-color="#79D3FD"/>
</linearGradient>
<linearGradient id="paint37_linear_32_645" x1="111.698" y1="136.718" x2="173.251" y2="136.718" gradientUnits="userSpaceOnUse">
<stop stop-color="#2E3E9D"/>
<stop offset="1" stop-color="#79D3FD"/>
</linearGradient>
<linearGradient id="paint38_linear_32_645" x1="-nan" y1="-nan" x2="-nan" y2="-nan" gradientUnits="userSpaceOnUse">
<stop stop-color="#79D3FD"/>
<stop offset="1" stop-color="white"/>
</linearGradient>
<linearGradient id="paint39_linear_32_645" x1="-nan" y1="-nan" x2="-nan" y2="-nan" gradientUnits="userSpaceOnUse">
<stop stop-color="#79D3FD"/>
<stop offset="1" stop-color="white"/>
</linearGradient>
<linearGradient id="paint40_linear_32_645" x1="-nan" y1="-nan" x2="-nan" y2="-nan" gradientUnits="userSpaceOnUse">
<stop stop-color="#79D3FD"/>
<stop offset="1" stop-color="white"/>
</linearGradient>
<linearGradient id="paint41_linear_32_645" x1="145.351" y1="87.8624" x2="133.045" y2="110.809" gradientUnits="userSpaceOnUse">
<stop stop-color="#F9DD68"/>
<stop offset="1" stop-color="#F9A942"/>
</linearGradient>
<linearGradient id="paint42_linear_32_645" x1="113.521" y1="89.725" x2="155.981" y2="89.725" gradientUnits="userSpaceOnUse">
<stop stop-color="#F9DD68"/>
<stop offset="1" stop-color="#F9A942"/>
</linearGradient>
<linearGradient id="paint43_linear_32_645" x1="115.97" y1="89.7249" x2="153.533" y2="89.7249" gradientUnits="userSpaceOnUse">
<stop stop-color="#F9DD68"/>
<stop offset="1" stop-color="#F9A942"/>
</linearGradient>
<linearGradient id="paint44_linear_32_645" x1="123.383" y1="87.5139" x2="144.621" y2="98.6669" gradientUnits="userSpaceOnUse">
<stop stop-color="#F9DD68"/>
<stop offset="1" stop-color="#F9A942"/>
</linearGradient>
<linearGradient id="paint45_linear_32_645" x1="125.3" y1="83.8629" x2="146.538" y2="95.0159" gradientUnits="userSpaceOnUse">
<stop stop-color="#F9DD68"/>
<stop offset="1" stop-color="#F9A942"/>
</linearGradient>
<linearGradient id="paint46_linear_32_645" x1="127.166" y1="80.3103" x2="148.404" y2="91.4631" gradientUnits="userSpaceOnUse">
<stop stop-color="#F9DD68"/>
<stop offset="1" stop-color="#F9A942"/>
</linearGradient>
<linearGradient id="paint47_linear_32_645" x1="117.082" y1="62.876" x2="121.186" y2="62.876" gradientUnits="userSpaceOnUse">
<stop stop-color="#F9DD68"/>
<stop offset="1" stop-color="#F9A942"/>
</linearGradient>
<linearGradient id="paint48_linear_32_645" x1="119.571" y1="117.758" x2="124.829" y2="117.758" gradientUnits="userSpaceOnUse">
<stop stop-color="#F9DD68"/>
<stop offset="1" stop-color="#F9A942"/>
</linearGradient>
<linearGradient id="paint49_linear_32_645" x1="152.554" y1="111.371" x2="154.511" y2="111.371" gradientUnits="userSpaceOnUse">
<stop stop-color="#F9DD68"/>
<stop offset="1" stop-color="#F9A942"/>
</linearGradient>
<linearGradient id="paint50_linear_32_645" x1="137.105" y1="124.622" x2="138.695" y2="124.622" gradientUnits="userSpaceOnUse">
<stop stop-color="#F9DD68"/>
<stop offset="1" stop-color="#F9A942"/>
</linearGradient>
<linearGradient id="paint51_linear_32_645" x1="108.508" y1="83.5336" x2="110.099" y2="83.5336" gradientUnits="userSpaceOnUse">
<stop stop-color="#F9DD68"/>
<stop offset="1" stop-color="#F9A942"/>
</linearGradient>
<linearGradient id="paint52_linear_32_645" x1="146.855" y1="63.6712" x2="148.445" y2="63.6712" gradientUnits="userSpaceOnUse">
<stop stop-color="#F9DD68"/>
<stop offset="1" stop-color="#F9A942"/>
</linearGradient>
<linearGradient id="paint53_linear_32_645" x1="147.65" y1="119.183" x2="150.056" y2="119.183" gradientUnits="userSpaceOnUse">
<stop stop-color="#F9DD68"/>
<stop offset="1" stop-color="#F9A942"/>
</linearGradient>
<linearGradient id="paint54_linear_32_645" x1="160.021" y1="79.7537" x2="162.427" y2="79.7537" gradientUnits="userSpaceOnUse">
<stop stop-color="#F9DD68"/>
<stop offset="1" stop-color="#F9A942"/>
</linearGradient>
<linearGradient id="paint55_linear_32_645" x1="204.705" y1="181.97" x2="215.003" y2="181.97" gradientUnits="userSpaceOnUse">
<stop stop-color="#00FFFF"/>
<stop offset="1" stop-color="#5793FB"/>
</linearGradient>
<linearGradient id="paint56_linear_32_645" x1="183.482" y1="181.19" x2="193.649" y2="181.19" gradientUnits="userSpaceOnUse">
<stop stop-color="#00FFFF"/>
<stop offset="1" stop-color="#5793FB"/>
</linearGradient>
<linearGradient id="paint57_linear_32_645" x1="195.198" y1="129.255" x2="195.198" y2="168.92" gradientUnits="userSpaceOnUse">
<stop stop-color="#00004F"/>
<stop offset="1" stop-color="#000079"/>
</linearGradient>
<linearGradient id="paint58_linear_32_645" x1="200.292" y1="139.499" x2="200.292" y2="154.305" gradientUnits="userSpaceOnUse">
<stop stop-color="#00006C"/>
<stop offset="1" stop-color="#3049B9"/>
</linearGradient>
<linearGradient id="paint59_linear_32_645" x1="203.591" y1="127.213" x2="203.591" y2="168.564" gradientUnits="userSpaceOnUse">
<stop stop-color="#00004F"/>
<stop offset="1" stop-color="#000079"/>
</linearGradient>
<linearGradient id="paint60_linear_32_645" x1="208.071" y1="78.9977" x2="208.071" y2="93.1465" gradientUnits="userSpaceOnUse">
<stop stop-color="#00B5FF"/>
<stop offset="1" stop-color="#3049B9"/>
</linearGradient>
<linearGradient id="paint61_linear_32_645" x1="200.773" y1="129.237" x2="200.773" y2="100.435" gradientUnits="userSpaceOnUse">
<stop stop-color="#7995FD"/>
<stop offset="1" stop-color="#54DEFF"/>
</linearGradient>
<linearGradient id="paint62_linear_32_645" x1="211.455" y1="111.267" x2="206.797" y2="101.823" gradientUnits="userSpaceOnUse">
<stop stop-color="#7995FD"/>
<stop offset="1" stop-color="#54DEFF"/>
</linearGradient>
<linearGradient id="paint63_linear_32_645" x1="180.641" y1="75.9877" x2="193.247" y2="88.1234" gradientUnits="userSpaceOnUse">
<stop stop-color="#2C89FB"/>
<stop offset="1" stop-color="#0059FF"/>
</linearGradient>
<linearGradient id="paint64_linear_32_645" x1="62.4926" y1="130.45" x2="66.1976" y2="179.673" gradientUnits="userSpaceOnUse">
<stop stop-color="#00006C"/>
<stop offset="1" stop-color="#5793FB"/>
</linearGradient>
<linearGradient id="paint65_linear_32_645" x1="52.8175" y1="127.722" x2="56.4773" y2="176.346" gradientUnits="userSpaceOnUse">
<stop stop-color="#00006C"/>
<stop offset="1" stop-color="#5793FB"/>
</linearGradient>
<linearGradient id="paint66_linear_32_645" x1="79.2497" y1="181.439" x2="67.8891" y2="183.507" gradientUnits="userSpaceOnUse">
<stop stop-color="#00006C"/>
<stop offset="1" stop-color="#3049B9"/>
</linearGradient>
<linearGradient id="paint67_linear_32_645" x1="64.5781" y1="182.525" x2="72.5371" y2="181.138" gradientUnits="userSpaceOnUse">
<stop stop-color="#00FFFF"/>
<stop offset="1" stop-color="#5793FB"/>
</linearGradient>
<linearGradient id="paint68_linear_32_645" x1="42.9182" y1="179.629" x2="51.5927" y2="184.116" gradientUnits="userSpaceOnUse">
<stop stop-color="#00FFFF"/>
<stop offset="1" stop-color="#5793FB"/>
</linearGradient>
<linearGradient id="paint69_linear_32_645" x1="64.1981" y1="83.655" x2="61.9675" y2="98.3637" gradientUnits="userSpaceOnUse">
<stop stop-color="#000051"/>
<stop offset="1" stop-color="#30389C"/>
</linearGradient>
<linearGradient id="paint70_linear_32_645" x1="60.9215" y1="83.158" x2="58.6908" y2="97.8668" gradientUnits="userSpaceOnUse">
<stop stop-color="#000051"/>
<stop offset="1" stop-color="#30389C"/>
</linearGradient>
<linearGradient id="paint71_linear_32_645" x1="71.9464" y1="116.601" x2="71.9464" y2="102.578" gradientUnits="userSpaceOnUse">
<stop stop-color="#7995FD"/>
<stop offset="1" stop-color="#54DEFF"/>
</linearGradient>
<linearGradient id="paint72_linear_32_645" x1="59.1873" y1="131.079" x2="59.1873" y2="102.523" gradientUnits="userSpaceOnUse">
<stop stop-color="#7995FD"/>
<stop offset="1" stop-color="#54DEFF"/>
</linearGradient>
<linearGradient id="paint73_linear_32_645" x1="62.6027" y1="125.288" x2="53.9693" y2="107.884" gradientUnits="userSpaceOnUse">
<stop stop-color="#160EC0"/>
<stop offset="1" stop-color="#5451FF"/>
</linearGradient>
<linearGradient id="paint74_linear_32_645" x1="52.3411" y1="115.916" x2="52.3411" y2="104.154" gradientUnits="userSpaceOnUse">
<stop stop-color="#7995FD"/>
<stop offset="1" stop-color="#54DEFF"/>
</linearGradient>
<linearGradient id="paint75_linear_32_645" x1="79.7781" y1="130.804" x2="103.024" y2="130.804" gradientUnits="userSpaceOnUse">
<stop stop-color="#2C89FB"/>
<stop offset="1" stop-color="#0059FF"/>
</linearGradient>
<linearGradient id="paint76_linear_32_645" x1="81.5215" y1="135.196" x2="95.6229" y2="135.196" gradientUnits="userSpaceOnUse">
<stop stop-color="#8AFFFF"/>
<stop offset="1" stop-color="#79D3FD"/>
</linearGradient>
<linearGradient id="paint77_linear_32_645" x1="86.6852" y1="132.888" x2="101.402" y2="132.888" gradientUnits="userSpaceOnUse">
<stop stop-color="#8AFFFF"/>
<stop offset="1" stop-color="#79D3FD"/>
</linearGradient>
<linearGradient id="paint78_linear_32_645" x1="85.6644" y1="122.902" x2="91.1311" y2="128.368" gradientUnits="userSpaceOnUse">
<stop stop-color="#F9DD68"/>
<stop offset="1" stop-color="#F9A942"/>
</linearGradient>
<linearGradient id="paint79_linear_32_645" x1="92.2307" y1="35.8159" x2="101.055" y2="35.8159" gradientUnits="userSpaceOnUse">
<stop stop-color="#2C89FB"/>
<stop offset="1" stop-color="#0059FF"/>
</linearGradient>
<linearGradient id="paint80_linear_32_645" x1="87.0681" y1="45.4785" x2="106.217" y2="45.4785" gradientUnits="userSpaceOnUse">
<stop stop-color="#2C89FB"/>
<stop offset="1" stop-color="#0059FF"/>
</linearGradient>
<linearGradient id="paint81_linear_32_645" x1="106.991" y1="26.2509" x2="107.746" y2="27.0063" gradientUnits="userSpaceOnUse">
<stop stop-color="#F9DD68"/>
<stop offset="1" stop-color="#F9A942"/>
</linearGradient>
<linearGradient id="paint82_linear_32_645" x1="109.426" y1="26.2509" x2="110.182" y2="27.0063" gradientUnits="userSpaceOnUse">
<stop stop-color="#F9DD68"/>
<stop offset="1" stop-color="#F9A942"/>
</linearGradient>
<linearGradient id="paint83_linear_32_645" x1="111.862" y1="26.2509" x2="112.617" y2="27.0063" gradientUnits="userSpaceOnUse">
<stop stop-color="#F9DD68"/>
<stop offset="1" stop-color="#F9A942"/>
</linearGradient>
<linearGradient id="paint84_linear_32_645" x1="82.1145" y1="22.5977" x2="111.171" y2="51.6542" gradientUnits="userSpaceOnUse">
<stop stop-color="#F9DD68"/>
<stop offset="1" stop-color="#F9A942"/>
</linearGradient>
<linearGradient id="paint85_linear_32_645" x1="246.565" y1="139.295" x2="270.56" y2="163.289" gradientUnits="userSpaceOnUse">
<stop stop-color="#2C89FB"/>
<stop offset="1" stop-color="#0059FF"/>
</linearGradient>
<linearGradient id="paint86_linear_32_645" x1="250.357" y1="142.317" x2="267.032" y2="158.993" gradientUnits="userSpaceOnUse">
<stop stop-color="#F9DD68"/>
<stop offset="1" stop-color="#F9A942"/>
</linearGradient>
<linearGradient id="paint87_linear_32_645" x1="253.799" y1="154.376" x2="263.831" y2="164.408" gradientUnits="userSpaceOnUse">
<stop stop-color="#10274A"/>
<stop offset="1" stop-color="#00347F"/>
</linearGradient>
<linearGradient id="paint88_linear_32_645" x1="258.351" y1="156.021" x2="265.208" y2="162.878" gradientUnits="userSpaceOnUse">
<stop stop-color="white"/>
<stop offset="1" stop-color="#79D3FD"/>
</linearGradient>
<linearGradient id="paint89_linear_32_645" x1="255.172" y1="158.723" x2="256.814" y2="160.365" gradientUnits="userSpaceOnUse">
<stop stop-color="#10274A"/>
<stop offset="1" stop-color="#00347F"/>
</linearGradient>
<linearGradient id="paint90_linear_32_645" x1="255.54" y1="159.091" x2="256.472" y2="160.022" gradientUnits="userSpaceOnUse">
<stop stop-color="white"/>
<stop offset="1" stop-color="#79D3FD"/>
</linearGradient>
<linearGradient id="paint91_linear_32_645" x1="256.414" y1="148.611" x2="261.337" y2="153.533" gradientUnits="userSpaceOnUse">
<stop stop-color="#10274A"/>
<stop offset="1" stop-color="#00347F"/>
</linearGradient>
<linearGradient id="paint92_linear_32_645" x1="152.669" y1="36.7263" x2="175.454" y2="59.5116" gradientUnits="userSpaceOnUse">
<stop stop-color="#2C89FB"/>
<stop offset="1" stop-color="#0059FF"/>
</linearGradient>
<linearGradient id="paint93_linear_32_645" x1="158.427" y1="42.995" x2="160.054" y2="44.6213" gradientUnits="userSpaceOnUse">
<stop stop-color="#2E48CD"/>
<stop offset="1" stop-color="#1F237E"/>
</linearGradient>
<linearGradient id="paint94_linear_32_645" x1="169.345" y1="42.995" x2="167.719" y2="44.6214" gradientUnits="userSpaceOnUse">
<stop stop-color="#2E48CD"/>
<stop offset="1" stop-color="#1F237E"/>
</linearGradient>
<linearGradient id="paint95_linear_32_645" x1="160.414" y1="48.7142" x2="162.444" y2="48.7142" gradientUnits="userSpaceOnUse">
<stop stop-color="#2E48CD"/>
<stop offset="1" stop-color="#1F237E"/>
</linearGradient>
<linearGradient id="paint96_linear_32_645" x1="165.328" y1="48.7142" x2="167.358" y2="48.7142" gradientUnits="userSpaceOnUse">
<stop stop-color="#2E48CD"/>
<stop offset="1" stop-color="#1F237E"/>
</linearGradient>
<linearGradient id="paint97_linear_32_645" x1="156.727" y1="47.0246" x2="159.95" y2="47.0246" gradientUnits="userSpaceOnUse">
<stop stop-color="#7995FD"/>
<stop offset="1" stop-color="#54DEFF"/>
</linearGradient>
<linearGradient id="paint98_linear_32_645" x1="170.726" y1="47.6122" x2="168.144" y2="45.0311" gradientUnits="userSpaceOnUse">
<stop stop-color="#7995FD"/>
<stop offset="1" stop-color="#54DEFF"/>
</linearGradient>
<linearGradient id="paint99_linear_32_645" x1="169.745" y1="48.5926" x2="167.164" y2="46.0114" gradientUnits="userSpaceOnUse">
<stop stop-color="#7995FD"/>
<stop offset="1" stop-color="#54DEFF"/>
</linearGradient>
<linearGradient id="paint100_linear_32_645" x1="170.726" y1="47.6122" x2="168.144" y2="45.0311" gradientUnits="userSpaceOnUse">
<stop stop-color="#7995FD"/>
<stop offset="1" stop-color="#54DEFF"/>
</linearGradient>
<linearGradient id="paint101_linear_32_645" x1="169.745" y1="48.5925" x2="167.164" y2="46.0114" gradientUnits="userSpaceOnUse">
<stop stop-color="#7995FD"/>
<stop offset="1" stop-color="#54DEFF"/>
</linearGradient>
<linearGradient id="paint102_linear_32_645" x1="-nan" y1="-nan" x2="-nan" y2="-nan" gradientUnits="userSpaceOnUse">
<stop stop-color="#2EFFFF"/>
<stop offset="1" stop-color="#79D3FD"/>
</linearGradient>
</defs>
</svg>
