<svg width="77" height="15" viewBox="0 0 77 15" fill="none" xmlns="http://www.w3.org/2000/svg">
<path d="M8.329 14.5L3.598 7.451L8.101 0.972H12.68L7.474 8.002L7.455 6.786L12.889 14.5H8.329ZM0.121 14.5V0.972H3.921V14.5H0.121ZM16.8738 9.104V6.482H19.1728C19.6921 6.482 20.0848 6.35533 20.3508 6.102C20.6295 5.84867 20.7688 5.513 20.7688 5.095C20.7688 4.677 20.6295 4.34133 20.3508 4.088C20.0848 3.83467 19.6921 3.708 19.1728 3.708H16.8738V0.972H19.7808C20.7181 0.972 21.5415 1.143 22.2508 1.485C22.9601 1.827 23.5175 2.302 23.9228 2.91C24.3281 3.518 24.5308 4.22733 24.5308 5.038C24.5308 5.84867 24.3218 6.558 23.9038 7.166C23.4985 7.774 22.9285 8.249 22.1938 8.591C21.4591 8.933 20.5915 9.104 19.5908 9.104H16.8738ZM13.7958 14.5V0.972H17.5958V14.5H13.7958ZM21.0918 14.5L17.4058 8.724L20.8258 7.983L25.4048 14.5H21.0918ZM29.9604 9.845L24.8114 0.972H29.1814L33.0764 8.211H29.8084L33.7034 0.972H37.9784L32.7914 9.845H29.9604ZM29.5234 14.5V8.458H33.3234V14.5H29.5234ZM41.7928 9.75V7.014H44.2438C44.5351 7.014 44.8011 6.957 45.0418 6.843C45.2951 6.71633 45.4978 6.53267 45.6498 6.292C45.8018 6.03867 45.8778 5.72833 45.8778 5.361C45.8778 4.99367 45.8018 4.68967 45.6498 4.449C45.4978 4.19567 45.2951 4.012 45.0418 3.898C44.8011 3.77133 44.5351 3.708 44.2438 3.708H41.7928V0.972H44.9848C45.8588 0.972 46.6441 1.14933 47.3408 1.504C48.0501 1.846 48.6074 2.34633 49.0128 3.005C49.4308 3.651 49.6398 4.43633 49.6398 5.361C49.6398 6.273 49.4308 7.05833 49.0128 7.717C48.6074 8.37567 48.0501 8.88233 47.3408 9.237C46.6441 9.579 45.8588 9.75 44.9848 9.75H41.7928ZM38.7148 14.5V0.972H42.5148V14.5H38.7148ZM54.2094 14.5V0.972H58.0094V14.5H54.2094ZM50.1624 4.202V0.972H62.0754V4.202H50.1624ZM69.6537 14.766C68.5897 14.766 67.6081 14.5887 66.7087 14.234C65.8221 13.8793 65.0431 13.3853 64.3717 12.752C63.7131 12.1187 63.2001 11.3713 62.8327 10.51C62.4654 9.64867 62.2817 8.71767 62.2817 7.717C62.2817 6.70367 62.4591 5.77267 62.8137 4.924C63.1811 4.07533 63.6941 3.33433 64.3527 2.701C65.0114 2.06767 65.7841 1.58 66.6707 1.238C67.5701 0.883333 68.5517 0.706 69.6157 0.706C70.6797 0.706 71.6551 0.883333 72.5417 1.238C73.4411 1.58 74.2201 2.06767 74.8787 2.701C75.5374 3.33433 76.0441 4.08167 76.3987 4.943C76.7661 5.79167 76.9497 6.72267 76.9497 7.736C76.9497 8.73667 76.7661 9.66767 76.3987 10.529C76.0441 11.3777 75.5374 12.125 74.8787 12.771C74.2201 13.4043 73.4474 13.8983 72.5607 14.253C71.6741 14.595 70.7051 14.766 69.6537 14.766ZM69.6157 11.422C70.3251 11.422 70.9394 11.27 71.4587 10.966C71.9781 10.662 72.3771 10.2313 72.6557 9.674C72.9344 9.11667 73.0737 8.46433 73.0737 7.717C73.0737 7.15967 72.9914 6.65933 72.8267 6.216C72.6747 5.76 72.4467 5.37367 72.1427 5.057C71.8387 4.72767 71.4714 4.48067 71.0407 4.316C70.6227 4.13867 70.1477 4.05 69.6157 4.05C68.9064 4.05 68.2921 4.202 67.7727 4.506C67.2534 4.79733 66.8544 5.22167 66.5757 5.779C66.2971 6.32367 66.1577 6.96967 66.1577 7.717C66.1577 8.287 66.2337 8.8 66.3857 9.256C66.5504 9.712 66.7847 10.1047 67.0887 10.434C67.3927 10.7507 67.7537 10.9977 68.1717 11.175C68.6024 11.3397 69.0837 11.422 69.6157 11.422Z" fill="white"/>
</svg>
